<svg width="44" height="44" viewBox="0 0 44 44" fill="none" xmlns="http://www.w3.org/2000/svg">
<path d="M4.88176 4.44297C3.42942 5.89531 2.20051 7.17578 2.14895 7.29609C2.08879 7.45078 2.07161 12.7703 2.0802 24.6898L2.10598 41.8688L2.31223 42.032C2.50989 42.1953 2.93957 42.1953 22.0005 42.1953C41.0529 42.1953 41.4911 42.1953 41.6888 42.032C41.895 41.8688 41.895 41.843 41.9208 39.9953C41.9466 37.993 41.9122 37.7352 41.5427 37.5633C41.4138 37.5031 40.7864 37.4688 39.9185 37.4688H38.5005V36.3516V35.2344H39.9185C40.7864 35.2344 41.4138 35.2 41.5427 35.1398C41.9122 34.968 41.9466 34.7102 41.9208 32.7164C41.895 31.0664 41.8778 30.843 41.7403 30.7055C41.6029 30.568 41.3364 30.5422 39.1278 30.5078L36.6786 30.4648L37.3318 30.0523C40.3568 28.1359 42.213 24.3031 41.8521 20.7195C41.4997 17.1961 39.4372 14.1625 36.3091 12.607C35.3294 12.1172 34.3411 11.8078 33.37 11.6789C32.9575 11.6273 32.5622 11.5672 32.5107 11.55C32.4247 11.5242 32.3989 10.5102 32.3989 6.83203C32.3989 2.26015 32.3989 2.14844 32.2271 1.97656C32.0552 1.80469 31.9435 1.80469 19.7919 1.80469H7.52864L4.88176 4.44297ZM31.1958 7.30469V11.6016H30.8521C29.4255 11.6016 26.9849 12.5812 25.5669 13.7242L25.0083 14.1797H16.2685C8.25911 14.1797 7.52004 14.1883 7.37395 14.3258C7.13332 14.5406 7.1677 14.9875 7.4427 15.2023C7.67473 15.3828 7.70911 15.3828 15.7786 15.3828H23.8911L23.4958 15.9586C23.006 16.6719 22.6021 17.4711 22.3013 18.3219L22.0607 18.9922H14.8161C7.67473 18.9922 7.56301 18.9922 7.39114 19.1641C7.15911 19.3961 7.1677 19.8 7.40832 20.0234C7.59739 20.1953 7.66614 20.1953 14.7044 20.1953H21.8114L21.7685 21.1578C21.5966 24.6555 23.3239 28.0758 26.2114 29.975L27.0193 30.5078H24.5786C21.4591 30.5078 21.7427 30.3102 21.7427 32.4586V34.0312H20.1958C18.7607 34.0312 18.6404 34.0398 18.4771 34.2031C18.3138 34.3664 18.3052 34.4867 18.3052 36.3516C18.3052 38.2164 18.3138 38.3367 18.4771 38.5C18.6404 38.6633 18.7607 38.6719 20.1958 38.6719H21.7427V39.832V40.9922H12.5044H3.26614L3.28332 24.5523L3.30911 8.12109L5.68957 8.09531L8.07004 8.07812L8.24192 7.84609C8.41379 7.63984 8.42239 7.51953 8.42239 5.31953V3.00781H19.8091H31.1958V7.30469ZM7.21926 5.41406V6.875H5.69817H4.16848L5.62942 5.41406C6.42864 4.60625 7.11614 3.95312 7.15051 3.95312C7.19348 3.95312 7.21926 4.60625 7.21926 5.41406ZM32.8286 12.8047C34.9255 13.0625 36.7646 13.982 38.1997 15.4773C39.8755 17.2391 40.6833 19.2672 40.6661 21.6992C40.6489 24.2 39.7294 26.3141 37.8818 28.0672C37.0825 28.8234 36.6529 29.1242 35.6474 29.6055C32.3302 31.2125 28.3083 30.5594 25.6271 27.9812C24.5786 26.9844 23.6333 25.3516 23.2294 23.8391C23.0318 23.1 23.006 22.8164 22.9974 21.6562C22.9974 20.5648 23.0232 20.1953 23.1779 19.5938C23.9771 16.4312 26.2974 13.9906 29.3482 13.1055C30.6114 12.7445 31.5997 12.6586 32.8286 12.8047ZM40.7177 32.8453L40.6919 33.9883L31.8232 34.0141L22.9458 34.0312V32.8711V31.7109H31.8404H40.7435L40.7177 32.8453ZM37.2974 36.3516V37.4688H28.4029H19.5083V36.3516V35.2344H28.4029H37.2974V36.3516ZM40.7177 39.8492L40.7435 40.9922H31.8404H22.9458V39.832V38.6719L31.8232 38.6891L40.6919 38.7148L40.7177 39.8492Z" fill="#F82179"/>
<path d="M12.375 9.34141C11.9453 9.50469 11.7906 10.0633 12.1 10.3383C12.2461 10.4672 12.7274 10.4844 17.2563 10.4844C22.1461 10.4844 22.2578 10.4844 22.4297 10.3125C22.6446 10.0977 22.6531 9.78828 22.4383 9.53047L22.275 9.32422L17.3852 9.30703C14.7039 9.29844 12.4438 9.31562 12.375 9.34141Z" fill="#F82179"/>
<path d="M7.40863 23.9766C7.168 24.2 7.15941 24.6039 7.39144 24.8359C7.56332 25.0078 7.67503 25.0078 12.5391 25.0078H17.5235L17.6953 24.7844C17.9274 24.4836 17.9188 24.2773 17.661 24.0195L17.4547 23.8047H12.5219C7.68363 23.8047 7.5891 23.8047 7.40863 23.9766Z" fill="#F82179"/>
<path d="M30.5166 14.6184C27.801 15.1512 25.6096 17.2137 24.9135 19.8949C24.6643 20.8402 24.6643 22.3699 24.9135 23.3324C25.4377 25.3605 26.8213 27.0707 28.6604 27.973C29.8291 28.5488 30.7229 28.7293 32.0979 28.6863C33.0689 28.652 33.3268 28.609 34.0314 28.3684C36.3002 27.6035 38.0189 25.816 38.6721 23.5473C38.9385 22.6277 38.99 21.2098 38.8096 20.273C38.1221 16.8957 35.2002 14.498 31.8057 14.5324C31.3072 14.541 30.7229 14.5754 30.5166 14.6184ZM33.1721 15.8645C33.9025 16.0277 34.9939 16.5691 35.5354 17.016C37.7354 18.8551 38.3541 21.9059 37.0307 24.4066C36.4463 25.5066 35.5096 26.3918 34.3322 26.9504C33.3611 27.4145 32.7768 27.5262 31.5822 27.4832C29.915 27.4145 28.858 26.9504 27.6721 25.7816C26.9502 25.0598 26.5549 24.4496 26.2455 23.5559C25.1111 20.2902 26.9932 16.784 30.3533 15.8988C31.1268 15.7012 32.3986 15.6754 33.1721 15.8645Z" fill="#F82179"/>
<path d="M31.4273 17.5057C31.393 17.5314 31.3672 17.6861 31.3672 17.8494C31.3672 18.09 31.3328 18.133 31.1781 18.133C30.6453 18.1416 29.8031 18.7432 29.5539 19.2932C29.3477 19.7314 29.3391 20.5393 29.5367 20.9432C29.7172 21.3385 30.25 21.7166 30.8688 21.8971L31.3672 22.0432V23.0057C31.3672 23.5385 31.3328 23.9768 31.2898 23.9768C31.1352 23.9768 30.5422 23.6932 30.1727 23.4354L29.7945 23.1775L29.468 23.5557C29.2875 23.7619 29.1328 23.9768 29.1328 24.0197C29.1328 24.1916 30.1211 24.7588 30.7398 24.9393C31.35 25.1197 31.3586 25.1283 31.3844 25.4291C31.4102 25.7385 31.4102 25.7385 31.8656 25.7643L32.3125 25.79V25.4549C32.3125 25.1197 32.3211 25.1197 32.6734 25.0682C32.8711 25.0424 33.2406 24.9135 33.507 24.776C34.143 24.4494 34.4867 23.9166 34.5297 23.1689C34.5898 22.1979 34.1086 21.6135 32.9141 21.2268L32.3125 21.0291V20.1439C32.3125 19.3963 32.3383 19.2502 32.4414 19.2502C32.6047 19.2502 33.2234 19.5596 33.507 19.7744L33.7133 19.9377L34.0398 19.4908C34.3492 19.0869 34.3664 19.0354 34.2375 18.8979C34.0398 18.683 33.0859 18.2361 32.6734 18.1674C32.3211 18.1158 32.3125 18.1072 32.3125 17.7807V17.4455H31.9C31.668 17.4455 31.4531 17.4713 31.4273 17.5057ZM31.3328 20.7713C31.2555 20.8486 30.6883 20.4447 30.6367 20.2729C30.5164 19.8947 30.8086 19.3533 31.1953 19.233C31.2984 19.1986 31.3242 19.3275 31.35 19.9635C31.3586 20.3846 31.3586 20.7541 31.3328 20.7713ZM33 22.5932C33.3008 22.8166 33.4039 23.2205 33.2234 23.5041C33.0688 23.7361 32.8023 23.9252 32.5102 24.0197C32.3125 24.0713 32.3125 24.0627 32.3125 23.2033V22.3268L32.5531 22.3783C32.682 22.4127 32.8797 22.5072 33 22.5932Z" fill="#F82179"/>
</svg>
