<svg width="46" height="46" viewBox="0 0 46 46" fill="none" xmlns="http://www.w3.org/2000/svg">
<path d="M4.18672 1.52734C3.6207 1.67109 2.81211 2.15625 2.4168 2.57852C2.21914 2.79414 1.92266 3.24336 1.76992 3.57578C1.50937 4.12383 1.48242 4.25859 1.48242 5.03125C1.48242 5.80391 1.50937 5.93867 1.76992 6.48672C2.14727 7.29531 2.66836 7.83438 3.44102 8.2207C3.78242 8.39141 4.12383 8.53516 4.18672 8.53516C4.29453 8.53516 4.3125 8.95742 4.3125 10.8711V13.216L4.53711 13.4316L4.75273 13.6562H7.07969H9.39766L9.36172 14.6355C9.32578 15.498 9.40664 16.5941 9.57734 17.6273L9.64023 17.9688H7.19648H4.75273L4.53711 18.1934C4.3125 18.409 4.3125 18.427 4.3125 20.0352C4.3125 21.3379 4.28555 21.6523 4.18672 21.6523C4.12383 21.6523 3.78242 21.7961 3.44102 21.9668C2.66836 22.3531 2.14727 22.8922 1.76992 23.7008C1.50937 24.2488 1.48242 24.3836 1.48242 25.1652C1.48242 25.9738 1.50039 26.0547 1.81484 26.7016C2.21914 27.5191 2.74023 28.0223 3.57578 28.4176C4.12383 28.6781 4.25859 28.7051 5.03125 28.7051C5.80391 28.7051 5.93867 28.6781 6.48672 28.4176C7.32227 28.0223 7.84336 27.5191 8.24766 26.7016C8.56211 26.0547 8.58008 25.9738 8.58008 25.1652C8.58008 24.3836 8.55312 24.2488 8.29258 23.7008C7.91523 22.8922 7.39414 22.3531 6.62148 21.9668C6.28008 21.7961 5.93867 21.6523 5.87578 21.6523C5.77695 21.6523 5.75 21.4188 5.75 20.5293V19.4062L7.91523 19.4242L10.0805 19.4512L10.2871 19.9902C10.9879 21.85 12.1289 23.548 13.6832 25.0305C15.7855 27.043 18.4359 28.2918 21.4098 28.6602L22.2812 28.768V30.9152V33.0625H21.4277C20.6281 33.0625 20.5473 33.0805 20.3406 33.2871L20.116 33.5117L20.143 37.977C20.1699 42.4152 20.1699 42.4512 20.3766 42.8555C20.691 43.5023 21.0504 43.8797 21.6703 44.2121C22.1914 44.4906 22.2992 44.5176 23 44.5176C23.7008 44.5176 23.8086 44.4906 24.3297 44.2121C24.9586 43.8707 25.2281 43.5922 25.5875 42.9094L25.8301 42.4512L25.857 37.977L25.884 33.5117L25.6594 33.2871C25.4527 33.0805 25.3719 33.0625 24.5723 33.0625H23.7188V30.9152V28.768L24.5992 28.6602C27.7437 28.2648 30.3402 26.998 32.5684 24.7609C34.0328 23.2875 35.057 21.7422 35.7129 19.9902L35.9195 19.4512L38.0848 19.4242L40.25 19.4062V20.5293C40.25 21.4188 40.223 21.6523 40.1242 21.6523C40.0613 21.6523 39.7199 21.7961 39.3785 21.9668C38.6059 22.3531 38.0848 22.8922 37.7074 23.7008C37.4469 24.2488 37.4199 24.3836 37.4199 25.1562C37.4199 25.9289 37.4469 26.0637 37.7074 26.6117C38.1027 27.4473 38.6059 27.9684 39.4234 28.3727C40.0703 28.6871 40.1512 28.7051 40.9688 28.7051C41.7863 28.7051 41.8672 28.6871 42.5141 28.3727C43.3316 27.9684 43.8348 27.4473 44.2301 26.6117C44.4906 26.0637 44.5176 25.9289 44.5176 25.1562C44.5176 24.3836 44.4906 24.2488 44.2301 23.7008C43.8527 22.8922 43.3316 22.3531 42.559 21.9668C42.2176 21.7961 41.8762 21.6523 41.8133 21.6523C41.7145 21.6523 41.6875 21.3379 41.6875 20.0352C41.6875 18.427 41.6875 18.409 41.4629 18.1934L41.2473 17.9688H38.8035H36.3598L36.4227 17.6273C36.5934 16.5941 36.6742 15.498 36.6383 14.6355L36.6023 13.6562H38.9203H41.2473L41.4629 13.4316L41.6875 13.216V10.8711C41.6875 8.95742 41.7055 8.53516 41.8133 8.53516C41.8762 8.53516 42.2176 8.39141 42.559 8.2207C43.3316 7.83438 43.8527 7.29531 44.2301 6.48672C44.4906 5.93867 44.5176 5.80391 44.5176 5.03125C44.5176 4.25859 44.4906 4.12383 44.2301 3.57578C43.8348 2.74023 43.3316 2.21914 42.5141 1.81485C41.8672 1.50039 41.7863 1.48242 40.9688 1.48242C40.1512 1.48242 40.0703 1.50039 39.4234 1.81485C38.6059 2.21914 38.1027 2.74023 37.7074 3.57578C37.4469 4.12383 37.4199 4.25859 37.4199 5.03125C37.4199 5.80391 37.4469 5.93867 37.7074 6.48672C38.0848 7.29531 38.6059 7.83438 39.3785 8.2207C39.7199 8.39141 40.0613 8.53516 40.1242 8.53516C40.223 8.53516 40.25 8.87656 40.25 10.377V12.2188H38.2914H36.3328L36.1711 11.5629C35.9734 10.7184 35.3625 9.21797 34.8684 8.35547C32.9816 5.09414 29.8281 2.71328 26.2074 1.8418C19.6758 0.260548 12.9105 3.71953 10.377 9.93672C10.1523 10.4758 9.90977 11.2035 9.82891 11.5629L9.66719 12.2188H7.70859H5.75V10.377C5.75 8.87656 5.77695 8.53516 5.87578 8.53516C5.93867 8.53516 6.28008 8.39141 6.62148 8.2207C7.39414 7.83438 7.91523 7.29531 8.29258 6.48672C8.55312 5.93867 8.58008 5.80391 8.58008 5.02227C8.58008 4.21367 8.56211 4.13281 8.24766 3.48594C7.63672 2.26406 6.55859 1.53633 5.22891 1.47344C4.85156 1.45547 4.38437 1.48242 4.18672 1.52734ZM5.69609 2.98281C6.46875 3.21641 7.1875 4.20469 7.1875 5.03125C7.1875 6.14531 6.14531 7.1875 5.03125 7.1875C4.46523 7.1875 4.00703 6.98086 3.54883 6.51367C2.63242 5.60625 2.63242 4.45625 3.54883 3.54883C4.17773 2.91094 4.85156 2.74023 5.69609 2.98281ZM25.4707 3.12656C30.3492 4.18672 34.0328 7.94219 35.0121 12.8477C35.2277 13.9078 35.2277 16.2887 35.0121 17.3578C34.0238 22.3082 30.2145 26.1176 25.2641 27.1059C24.1949 27.3215 21.8141 27.3215 20.7539 27.1059C15.7766 26.1176 11.9852 22.3262 10.9879 17.3578C10.7723 16.2797 10.7723 13.9078 10.9879 12.8297C12.0211 7.69062 15.9922 3.8543 21.1762 3.00977C22.2453 2.83906 24.3836 2.89297 25.4707 3.12656ZM41.6336 2.98281C42.4062 3.21641 43.125 4.20469 43.125 5.03125C43.125 6.14531 42.0828 7.1875 40.9688 7.1875C40.4027 7.1875 39.9445 6.98086 39.4863 6.51367C38.5699 5.60625 38.5699 4.45625 39.4863 3.54883C40.1152 2.91094 40.7891 2.74023 41.6336 2.98281ZM5.69609 23.1078C6.19023 23.2516 6.93594 23.9973 7.07969 24.4914C7.33125 25.3359 7.15156 26.0098 6.51367 26.6387C5.60625 27.5551 4.45625 27.5551 3.54883 26.6387C2.63242 25.7313 2.63242 24.5813 3.54883 23.6738C4.17773 23.0359 4.85156 22.8652 5.69609 23.1078ZM41.6336 23.1078C42.4062 23.3414 43.125 24.3297 43.125 25.1562C43.125 26.2703 42.0828 27.3125 40.9688 27.3125C39.8547 27.3125 38.8125 26.2703 38.8125 25.1562C38.8125 24.5902 39.0191 24.132 39.4863 23.6738C40.1152 23.0359 40.7891 22.8652 41.6336 23.1078ZM24.4195 38.3543C24.3926 42.0918 24.3836 42.2176 24.2039 42.4602C23.8535 42.9363 23.566 43.0801 23 43.0801C22.434 43.0801 22.1465 42.9363 21.7961 42.4602C21.6164 42.2176 21.6074 42.0918 21.5805 38.3543L21.5535 34.5H23H24.4465L24.4195 38.3543Z" fill="#F82179"/>
<path d="M21.7877 4.3664C20.2783 4.6 19.2541 4.92344 18.0322 5.55234C15.1842 7.00781 13.1268 9.72109 12.435 12.9375C12.2014 13.9977 12.2014 16.1898 12.435 17.25C13.3693 21.5805 16.6936 24.8418 21.0689 25.7043C21.4283 25.7762 22.2549 25.8301 23.0006 25.8301C23.7463 25.8301 24.5729 25.7762 24.9322 25.7043C29.3795 24.8238 32.7307 21.4727 33.6111 17.0254C33.7998 16.1 33.7729 13.8898 33.5662 12.9375C32.6678 8.75078 29.4873 5.51641 25.3365 4.57305C24.5908 4.40234 22.3986 4.27656 21.7877 4.3664ZM24.492 5.88476C26.4506 6.22617 27.9959 6.99883 29.4424 8.38242C32.3174 11.1406 33.126 15.3543 31.4729 18.975L31.1404 19.7027L30.7361 19.2535C29.8736 18.3012 28.7326 17.6363 27.5377 17.3848C26.3068 17.1242 26.217 17.1512 24.5189 18.1125L23.0006 18.975L21.4643 18.1035L19.9189 17.223L19.2811 17.277C17.8615 17.4027 16.6396 17.9687 15.5436 19.0109L14.8518 19.6758L14.5283 18.975C14.124 18.0855 13.9623 17.5734 13.7916 16.5852C13.1088 12.6141 15.1842 8.56211 18.8318 6.74726C20.6197 5.85781 22.5963 5.56133 24.492 5.88476ZM21.1678 19.5859C22.174 20.152 22.8479 20.4844 23.0186 20.4844C23.1803 20.4844 23.8541 20.152 24.8604 19.577L26.4506 18.6605L27.0705 18.7773C28.1846 18.975 29.3436 19.7027 29.9904 20.6012L30.2779 21.0145L29.676 21.6254C25.9744 25.3629 19.9998 25.3449 16.3162 21.5805C15.6873 20.9336 15.6873 20.8707 16.4779 20.0891C17.2596 19.3074 18.4635 18.7324 19.3889 18.6965C19.4967 18.6875 20.3053 19.0918 21.1678 19.5859Z" fill="#F82179"/>
<path d="M22.0561 7.26866C19.9268 7.73585 18.3456 9.39796 18.0401 11.4913C17.5729 14.6718 20.2143 17.4929 23.4128 17.2233C25.4702 17.0437 27.1233 15.705 27.8151 13.6566C27.9409 13.2972 27.9858 12.9019 27.9858 12.2191C27.9858 11.5362 27.9409 11.1409 27.8151 10.7816C27.0964 8.64327 25.3804 7.31358 23.2241 7.23273C22.7839 7.21476 22.2538 7.23273 22.0561 7.26866ZM24.4729 8.96671C25.2905 9.34405 25.8116 9.86515 26.2159 10.6737C26.5304 11.3206 26.5483 11.4015 26.5483 12.2191C26.5483 13.0366 26.5304 13.1175 26.2159 13.7644C25.8116 14.5819 25.2905 15.0851 24.455 15.4804C23.9069 15.7409 23.7722 15.7679 22.9995 15.7679C22.2268 15.7679 22.0921 15.7409 21.544 15.4804C20.7085 15.0851 20.1874 14.5819 19.7831 13.7644C19.4686 13.1175 19.4507 13.0366 19.4507 12.228C19.4507 11.4464 19.4776 11.3116 19.7382 10.7636C20.0975 9.99991 20.6097 9.44288 21.2835 9.09249C21.9843 8.71515 22.3796 8.6253 23.1972 8.66124C23.7452 8.68819 24.0237 8.76007 24.4729 8.96671Z" fill="#F82179"/>
</svg>
