<svg width="45" height="33" viewBox="0 0 45 33" fill="none" xmlns="http://www.w3.org/2000/svg">
<path d="M25.717 -0.0750008C23.3234 0.209377 19.8277 1.37969 19.4826 1.99219C19.2934 2.35312 19.3602 2.76875 19.6496 3.04219C19.9836 3.38125 20.351 3.38125 21.019 3.05313C22.277 2.42969 24.3365 1.86094 25.9174 1.69687L26.719 1.60938V2.62656C26.719 3.56719 26.7412 3.67656 26.9973 3.91719C27.1643 4.09219 27.3981 4.19063 27.6096 4.19063C27.8211 4.19063 28.0549 4.09219 28.2219 3.91719C28.4779 3.67656 28.5002 3.56719 28.5002 2.62656V1.60938L29.3129 1.69687C30.9494 1.86094 32.9311 2.42969 34.3449 3.11875C35.191 3.54531 36.6717 4.48594 37.2172 4.95625L37.6402 5.31719L36.9055 6.05C36.0705 6.90313 35.9703 7.275 36.4602 7.74531C36.9389 8.22656 37.3174 8.12813 38.1857 7.29688L38.9428 6.58594L39.3658 7.08906C40.9801 8.97031 42.2381 11.8469 42.5609 14.4281L42.7057 15.5109L41.6035 15.5656C40.6127 15.6094 40.4791 15.6422 40.2899 15.8828C40.0004 16.2328 40.0227 16.725 40.3566 17.0422C40.6016 17.2937 40.7129 17.3156 41.6703 17.3156H42.7057L42.6166 18.1031C42.4496 19.7219 41.8707 21.6687 41.1693 23.0578C40.7352 23.8891 39.7777 25.3438 39.299 25.8797L38.9316 26.2953L38.1857 25.5734C37.3174 24.7531 36.9389 24.6547 36.4602 25.1359C35.9703 25.6063 36.0705 25.9781 36.9166 26.8313L37.6402 27.575L36.9723 28.1109C34.9906 29.6859 31.9291 30.9219 29.3686 31.1844L28.5002 31.2719V30.2547C28.5002 29.3141 28.4779 29.2047 28.2219 28.9641C27.8656 28.6031 27.3535 28.6031 26.9973 28.9641C26.7412 29.2047 26.719 29.3141 26.719 30.2547V31.2938L26.1957 31.2391C24.6705 31.1078 22.7 30.5828 21.275 29.9375C20.2953 29.5 20.0059 29.4781 19.6496 29.8391C19.3156 30.1562 19.2822 30.6375 19.5717 30.9766C19.8055 31.2609 21.5088 31.9937 22.8002 32.3656C24.5147 32.8469 25.6391 33 27.6096 33C30.3594 33 32.3856 32.5516 34.8459 31.4141C36.7496 30.5281 38.2191 29.5109 39.6219 28.1328C46.1791 21.6578 46.1012 11.0375 39.4549 4.59531C37.0391 2.24375 33.9441 0.690624 30.5041 0.0890617C29.3129 -0.118748 26.8191 -0.206249 25.717 -0.0750008Z" fill="#F82179"/>
<path d="M10.9658 5.33887C10.7877 5.50293 10.6875 5.73262 10.6875 5.94043C10.6875 6.14824 10.7877 6.37793 10.9658 6.54199L11.233 6.81543H16.3652H21.4975L21.7646 6.54199C21.9428 6.37793 22.043 6.14824 22.043 5.94043C22.043 5.73262 21.9428 5.50293 21.7646 5.33887L21.4975 5.06543H16.3652H11.233L10.9658 5.33887Z" fill="#F82179"/>
<path d="M31.7729 11.1032L29.4016 13.411L28.8227 13.236C27.086 12.6782 25.16 13.3891 24.4364 14.8548C24.0133 15.697 23.9465 16.7032 24.2471 17.5891L24.4698 18.2345L24.0356 18.7048C23.5124 19.2626 23.4456 19.7657 23.8575 20.1376C24.2694 20.5204 24.7481 20.4548 25.327 19.9298L25.828 19.4704L26.3958 19.6563C28.1102 20.1923 30.0139 19.4923 30.7709 18.0595C31.2051 17.2063 31.2831 16.2001 30.9713 15.2923L30.7376 14.636L33.0754 12.3282C35.1461 10.2829 35.4022 9.98759 35.4022 9.68134C35.4022 9.44071 35.302 9.2329 35.1239 9.0579C34.9458 8.8829 34.7342 8.78446 34.4893 8.78446C34.1776 8.78446 33.877 9.03602 31.7729 11.1032ZM28.4887 14.997C29.101 15.2923 29.3348 15.697 29.3348 16.4407C29.3348 17.1845 29.101 17.5891 28.4887 17.8845C27.7094 18.2782 26.6073 18.0485 26.1174 17.3923C25.9393 17.1626 25.8836 16.911 25.8836 16.4407C25.8836 15.9704 25.9393 15.7188 26.1174 15.4891C26.4292 15.0735 27.0081 14.8001 27.6092 14.8001C27.8876 14.8001 28.2772 14.8876 28.4887 14.997Z" fill="#F82179"/>
<path d="M5.62207 10.5889C5.44395 10.7529 5.34375 10.9826 5.34375 11.1904C5.34375 11.3982 5.44395 11.6279 5.62207 11.792L5.88926 12.0654H12.9586C17.9795 12.0654 20.1059 12.0326 20.3062 11.9451C20.6291 11.792 20.874 11.2998 20.7627 10.9717C20.7182 10.8514 20.5846 10.6436 20.451 10.5342C20.2283 10.3264 20.0279 10.3154 13.0588 10.3154H5.88926L5.62207 10.5889Z" fill="#F82179"/>
<path d="M0.27832 15.8389C0.100195 16.0029 0 16.2326 0 16.4404C0 16.6482 0.100195 16.8779 0.27832 17.042L0.545508 17.3154H9.79688H19.0482L19.3154 17.042C19.6828 16.692 19.6828 16.1889 19.3154 15.8389L19.0482 15.5654H9.79688H0.545508L0.27832 15.8389Z" fill="#F82179"/>
<path d="M5.62207 21.0889C5.44395 21.2529 5.34375 21.4826 5.34375 21.6904C5.34375 21.8982 5.44395 22.1279 5.62207 22.292L5.88926 22.5654H12.9586C17.9795 22.5654 20.1059 22.5326 20.3062 22.4451C20.6291 22.292 20.874 21.7998 20.7627 21.4717C20.7182 21.3514 20.5846 21.1436 20.451 21.0342C20.2283 20.8264 20.0279 20.8154 13.0588 20.8154H5.88926L5.62207 21.0889Z" fill="#F82179"/>
<path d="M10.9658 26.3389C10.7877 26.5029 10.6875 26.7326 10.6875 26.9404C10.6875 27.1482 10.7877 27.3779 10.9658 27.542L11.233 27.8154H16.3652H21.4975L21.7646 27.542C21.9428 27.3779 22.043 27.1482 22.043 26.9404C22.043 26.7326 21.9428 26.5029 21.7646 26.3389L21.4975 26.0654H16.3652H11.233L10.9658 26.3389Z" fill="#F82179"/>
</svg>
