<svg width="57" height="41" viewBox="0 0 57 41" fill="none" xmlns="http://www.w3.org/2000/svg">
<path d="M14.2993 0.509445C13.9542 0.640694 13.7649 0.92507 13.7649 1.28601C13.7649 1.57038 14.0321 1.88757 15.6129 3.44069C17.1938 4.99382 17.4721 5.32195 17.4721 5.59538C17.4721 5.87976 17.0045 6.38288 13.9542 9.36882C12.0282 11.261 10.3917 12.9344 10.336 13.0766C10.1245 13.5907 10.6032 14.1813 11.2155 14.1813C11.3157 14.1813 12.7963 12.8032 14.5219 11.1188C16.2364 9.43445 17.6948 8.05632 17.7504 8.05632C17.8061 8.05632 18.129 8.31882 18.4741 8.64695C18.9973 9.16101 19.2534 9.3032 20.311 9.69695C21.6024 10.1782 22.5153 10.6157 22.7268 10.8673C22.827 10.9876 22.4708 11.3923 21.0124 12.8469C18.8637 14.9907 18.6411 15.3407 18.6411 16.5876C18.6411 17.9219 19.2645 18.9173 20.5114 19.5626C20.8899 19.7704 21.1571 19.8141 21.9252 19.8141C23.1053 19.8141 23.3948 19.6719 25.1538 18.2719L26.4229 17.2438H27.7032H28.9834L30.4975 18.7204C31.8891 20.0657 32.0561 20.1969 32.4235 20.1969C32.7241 20.1969 32.8799 20.1204 33.0469 19.9126C33.47 19.3876 33.3698 19.1798 32.1452 17.9438C31.1543 16.9376 31.0096 16.7516 31.0319 16.4673C31.0542 16.2813 30.9874 16.0188 30.8983 15.8657L30.7202 15.6032H28.2598H25.8106L24.419 16.7188C23.662 17.3423 22.8715 17.9329 22.6711 18.0313C21.7026 18.5563 20.5336 17.9548 20.2999 16.8282C20.1663 16.1719 20.4112 15.8219 22.3594 13.9298L24.2297 12.0923L28.6717 12.1251L33.1137 12.1579L34.8393 13.1094C37.2551 14.4657 36.9991 14.5094 39.1922 12.3657C40.1497 11.4251 40.9958 10.6704 41.0626 10.6923C41.1739 10.736 48.7331 17.7907 49.5792 18.6548L50.0245 19.1032L49.2786 19.8579C48.4547 20.6891 48.3323 21.0938 48.7553 21.5094C49.2006 21.9469 49.6126 21.8048 50.4809 20.9626L51.2713 20.186L51.6053 20.361C52.1174 20.6235 52.7631 20.5688 53.3309 20.2079C53.5981 20.0438 54.5333 19.1798 55.4127 18.3048C56.7153 17.0032 56.9936 16.6641 56.9936 16.4016C56.9936 15.9423 56.6262 15.6032 56.1364 15.6032C55.7579 15.6032 55.5909 15.7344 54.0323 17.2657L52.329 18.9173L51.3493 17.9985C50.8149 17.4954 48.2989 15.1438 45.7717 12.7704C43.2557 10.4079 41.185 8.43913 41.185 8.39538C41.185 8.36257 42.7102 6.83132 44.5805 4.99382C47.5752 2.05163 47.976 1.61413 47.976 1.30788C47.976 0.83757 47.6643 0.498507 47.219 0.48757C46.8739 0.476631 46.5733 0.739132 43.3336 3.91101C41.4077 5.80319 39.76 7.47663 39.6709 7.6407C39.4706 8.02351 39.4706 8.74538 39.6709 9.13913L39.8379 9.44538L38.3461 10.9001L36.8655 12.3548L35.396 11.5563C34.5944 11.1188 33.7483 10.6923 33.5256 10.6157C33.2139 10.5063 32.0895 10.4735 28.9501 10.4626H24.7975L24.0182 9.80632C23.1276 9.05163 22.66 8.80007 21.068 8.22038C20.1329 7.88132 19.8545 7.7282 19.4092 7.27976C18.9194 6.78757 18.886 6.73288 19.0084 6.47038C19.22 6.02194 19.1754 5.04851 18.9305 4.5782C18.6745 4.09694 15.0674 0.553194 14.7446 0.476631C14.6221 0.443819 14.4217 0.454758 14.2993 0.509445Z" fill="#F82179"/>
<path d="M0.226722 12.3875C-0.240856 12.9781 -0.185192 13.0656 2.36422 15.5813C3.65563 16.8609 4.91364 18.0094 5.13629 18.1297C5.39235 18.2609 5.77086 18.3375 6.13825 18.3375H6.72828L8.54293 20.1203L10.3464 21.8922V23.1172C10.3464 24.5719 10.558 25.2719 11.2259 26.0156L11.649 26.4859L11.2816 26.9344C9.83434 28.6625 10.7027 31.2 12.8847 31.6266L13.5193 31.7578L13.5861 32.25C13.6863 32.8625 13.9089 33.3109 14.3765 33.7594C14.7996 34.175 15.7236 34.6344 16.1466 34.6344C16.4027 34.6344 16.4584 34.6891 16.5252 35.0391C16.7701 36.3625 17.7275 37.325 18.9855 37.5328C19.4308 37.5984 19.4531 37.6203 19.5199 38.0578C19.7425 39.5344 21.2455 40.6609 22.7707 40.5078C23.5945 40.4203 24.0843 40.125 25.1531 39.075L26.0994 38.1344L27.324 39.3375C28.7156 40.6937 29.25 41 30.2742 41C31.7771 41 32.9683 39.9828 33.2244 38.4844C33.2912 38.0578 33.3246 38.025 33.6474 38.025C34.1929 38.025 35.0836 37.5547 35.54 37.0297C35.9185 36.6031 36.2859 35.7391 36.2859 35.2906C36.2859 35.1484 36.4195 35.0828 36.7869 35.0391C38.0449 34.8641 39.0802 33.8469 39.2584 32.6109C39.314 32.1953 39.3586 32.1188 39.5701 32.1188C40.8392 32.1188 42.2976 30.6859 42.2976 29.4391C42.2976 29.0234 42.3867 28.925 44.9695 26.3766C47.8752 23.5109 47.9308 23.4234 47.363 22.8766C46.8064 22.3297 46.6951 22.3953 44.0789 24.9547L41.6853 27.3063L38.5681 24.2547C36.4752 22.1984 35.3507 21.1703 35.1392 21.1156C34.6605 21.0063 34.2375 21.3563 34.1929 21.8922C34.1595 22.2969 34.1929 22.3406 37.3881 25.4906C40.483 28.5422 40.6277 28.7063 40.6277 29.1C40.6277 30.1062 39.6591 30.7844 38.813 30.3578C38.6795 30.2922 37.7332 29.4281 36.7201 28.4438C34.7162 26.4859 34.538 26.3875 34.0037 26.9234C33.4582 27.4484 33.5584 27.6234 35.5511 29.5922C36.5531 30.5875 37.4326 31.5172 37.4994 31.6484C37.9447 32.5125 37.1654 33.5297 36.1412 33.3984C35.7515 33.3438 35.4955 33.1359 33.781 31.4734C31.7326 29.4609 31.5879 29.3844 31.0089 29.8328C30.8086 29.9859 30.7195 30.1609 30.7195 30.4016C30.7195 30.6969 30.9755 30.9922 32.6009 32.6109C34.1707 34.1641 34.4935 34.5469 34.5603 34.8859C34.7162 35.7063 34.1373 36.3844 33.2689 36.3844C32.8125 36.3844 32.7568 36.3406 30.8976 34.5359C29.6953 33.3656 28.8714 32.6547 28.6822 32.6C28.2146 32.4906 27.7804 32.8406 27.7359 33.3656C27.7025 33.7703 27.7582 33.8359 29.5839 35.6516C31.5656 37.6313 31.7214 37.8609 31.4988 38.5281C31.3095 39.075 30.9088 39.3375 30.2519 39.3375C29.6953 39.3375 29.6953 39.3375 28.4595 38.1453L27.2349 36.9641L27.413 36.5047C27.6357 35.9688 27.658 35.1156 27.4687 34.4813C27.2906 33.8797 26.2552 32.8625 25.6429 32.6875C25.3869 32.6109 25.0084 32.5563 24.7968 32.5563C24.4183 32.5563 24.4072 32.5344 24.2291 31.9219C24.0064 31.1344 23.4386 30.4672 22.7039 30.1391C22.2029 29.9203 22.1584 29.8656 22.2363 29.6141C22.2697 29.4609 22.3031 29.0672 22.3031 28.7609C22.2697 27.5578 21.3679 26.4203 20.1656 26.0922C19.7203 25.9719 18.8519 26.0047 18.3064 26.1578C18.1172 26.2125 18.0504 26.1469 17.939 25.8516C17.8611 25.6438 17.6162 25.2937 17.3935 25.0641C16.2802 23.9375 14.4879 23.9047 13.2187 24.9875L12.8291 25.3266L12.6064 25.0859C12.1054 24.55 12.0164 24.2109 12.0164 22.7672C12.0164 21.9688 11.9607 21.2797 11.8939 21.1484C11.8271 21.0172 10.9588 20.1094 9.97907 19.1359L8.17555 17.3531L8.75446 16.7844C9.46696 16.0625 9.56715 15.7453 9.19977 15.3297C9.01051 15.1109 8.83239 15.0234 8.57633 15.0234C8.27575 15.0234 8.07535 15.1656 7.36285 15.8547C6.68375 16.5219 6.4277 16.6969 6.17164 16.6969C5.90446 16.6969 5.48141 16.3359 3.49977 14.4C1.4402 12.3875 1.11735 12.1031 0.805628 12.1031C0.560706 12.1031 0.382581 12.1906 0.226722 12.3875ZM15.9908 26.0594C16.3804 26.3 16.6142 26.8359 16.5252 27.2734C16.4695 27.5578 16.1912 27.9187 15.4341 28.6953C14.3097 29.8438 14.0091 30.0406 13.3968 30.0406C12.7957 30.0406 12.239 29.4609 12.239 28.8266C12.239 28.3891 12.2947 28.3125 13.4748 27.1313C14.165 26.4531 14.8218 25.8734 14.9554 25.8516C15.2783 25.7859 15.7013 25.8625 15.9908 26.0594ZM20.1767 27.9625C20.6332 28.3453 20.7556 28.8266 20.5441 29.3078C20.455 29.5047 19.6312 30.3906 18.7072 31.2984L17.0261 32.9391H16.4584C15.9574 32.9391 15.8572 32.8953 15.5677 32.5781C15.3117 32.2937 15.2449 32.1188 15.2449 31.7141C15.2449 31.2109 15.2449 31.2 16.8369 29.625C17.7052 28.7609 18.5736 27.9516 18.7517 27.8422C19.2527 27.5359 19.7314 27.5797 20.1767 27.9625ZM21.9802 31.6375C22.4589 31.8562 22.7484 32.4359 22.6482 32.9609C22.5925 33.2562 22.3142 33.6172 21.457 34.4813C20.8447 35.0938 20.1767 35.6844 19.9541 35.7828C19.275 36.1 18.6515 35.8484 18.2507 35.0828C17.9724 34.5578 18.1951 34.1312 19.3752 32.9391C20.8224 31.4734 21.2121 31.2766 21.9802 31.6375ZM25.5539 34.5687C25.8767 34.8859 25.9324 35.0172 25.9324 35.4656C25.9324 35.9797 25.9213 35.9906 24.6298 37.2812C23.9062 38.0031 23.1714 38.6703 22.9933 38.7578C22.0359 39.25 20.8336 38.1562 21.2566 37.1609C21.3234 36.9859 22.0025 36.2531 22.7484 35.5203C24.1066 34.1969 24.1177 34.1969 24.641 34.1969C25.0974 34.1969 25.231 34.2516 25.5539 34.5687Z" fill="#F82179"/>
</svg>
