<svg width="39" height="39" viewBox="0 0 39 39" fill="none" xmlns="http://www.w3.org/2000/svg">
<path d="M28.359 1.69077C28.1533 1.78979 28.0695 2.01831 27.9705 2.78765C27.8943 3.35894 27.643 4.06734 27.3764 4.47866C27.2621 4.65386 27.2621 4.65386 26.9727 4.18921C26.5613 3.50366 26.051 2.96284 25.5863 2.70386C25.2359 2.51343 25.0684 2.47534 24.4895 2.45249C23.6516 2.41441 23.0727 2.58199 21.7244 3.27515C21.1912 3.54937 20.5666 3.80074 20.1705 3.89976L19.5002 4.07495L18.8375 3.89976C18.4338 3.80074 17.8092 3.54937 17.276 3.27515C15.9201 2.58199 15.3488 2.41441 14.5109 2.45249C13.7492 2.49058 13.4445 2.60484 12.8961 3.08472C12.4924 3.42749 11.8526 4.38726 11.3955 5.33941C10.9842 6.18491 10.4434 6.89331 10.0168 7.13706C9.57501 7.38843 8.83614 7.60171 7.96779 7.73882C6.41388 7.96734 5.56837 8.28726 4.97423 8.8814C4.2049 9.65835 4.03732 10.7628 4.38771 12.7357C4.46388 13.147 4.50197 13.6878 4.47911 14.183C4.45626 14.9294 4.44103 14.998 4.18966 15.4246C4.04493 15.6683 3.4965 16.3158 2.97091 16.8642C1.9045 17.9763 1.50841 18.5552 1.3256 19.2712C1.02853 20.4367 1.48556 21.4345 3.03185 22.9884C3.48888 23.4455 3.99161 24.032 4.15158 24.3062C4.44103 24.7709 4.45626 24.8242 4.47911 25.563C4.50197 26.0962 4.46388 26.5837 4.37247 27.1246C4.16681 28.2748 4.18966 29.4554 4.41818 30.0496C4.63908 30.6132 5.20275 31.1998 5.78927 31.474C6.292 31.7101 7.1756 31.9386 8.07443 32.0681C8.80568 32.1671 9.74259 32.449 10.1082 32.6775C10.4281 32.8755 10.9842 33.6296 11.3651 34.3914C12.1877 36.0367 12.7361 36.7146 13.5436 37.1107C13.9777 37.324 14.1225 37.3621 14.6252 37.3544C15.3717 37.3544 15.9049 37.1869 17.0703 36.6003C19.2031 35.5263 19.782 35.5187 21.8615 36.5699C23.0879 37.1793 23.5983 37.3468 24.3371 37.3544C24.8856 37.3621 25.0074 37.3316 25.4568 37.1107C26.2643 36.7146 26.8051 36.0367 27.6354 34.3914C28.0162 33.6296 28.5723 32.8755 28.8922 32.6775C29.2578 32.449 30.1947 32.1671 30.926 32.0681C31.284 32.0148 31.8477 31.9082 32.1828 31.8244C34.3156 31.2988 35.085 30.0267 34.6965 27.6501C34.5213 26.6142 34.468 25.266 34.5746 24.8546C34.6889 24.4433 35.1383 23.8492 36.1438 22.7751C37.4692 21.3736 37.85 20.6423 37.7586 19.6978C37.6748 18.8294 37.3092 18.2201 36.0828 16.9175C35.1611 15.9349 34.5822 15.2037 34.5822 15.0132C34.5822 14.8 35.0164 14.1296 35.344 13.8326C35.7553 13.4593 36.3647 13.1851 36.8826 13.1318C37.4082 13.0785 37.5986 12.9794 37.7129 12.7128C37.7815 12.5453 37.7815 12.4386 37.7129 12.271C37.5986 12.0044 37.4082 11.9054 36.8826 11.8521C35.6334 11.7302 34.5746 10.6486 34.4527 9.38413C34.3994 8.82046 34.2775 8.63003 33.9195 8.56148C33.7596 8.53101 33.493 8.4396 33.3254 8.35581C33.1578 8.27202 32.8379 8.14253 32.6094 8.07398C32.3809 8.00542 32.2361 7.92163 32.2818 7.89116C32.3275 7.86069 32.6475 7.80737 32.9979 7.76167C33.752 7.66265 33.9881 7.56363 34.0795 7.30464C34.2395 6.83999 33.9043 6.47437 33.3102 6.47437C32.8303 6.47437 32.0762 6.26109 31.5125 5.96402C30.3395 5.34702 29.4863 4.12827 29.3188 2.8105C29.2121 1.99546 29.1359 1.78979 28.8998 1.68316C28.6713 1.58413 28.5799 1.58413 28.359 1.69077ZM15.4707 3.80074C15.6992 3.87691 16.3467 4.17398 16.9104 4.47105C18.0758 5.06519 18.5785 5.20992 19.5002 5.2023C20.3381 5.18706 20.8789 5.01949 22.4252 4.28823C23.4611 3.79312 23.7125 3.70171 24.1467 3.67124C24.558 3.64077 24.7104 3.66362 24.9617 3.79312C25.3426 3.99117 25.7463 4.4482 26.1043 5.09566C26.3709 5.56792 26.3785 5.58316 26.2338 5.6898C25.7082 6.08589 24.6037 6.47437 23.9791 6.47437C23.4154 6.47437 23.0879 6.80952 23.2022 7.26655C23.2707 7.55601 23.4916 7.67027 24.0858 7.72359C26.2186 7.92925 27.8258 9.54409 28.0086 11.6541C28.0619 12.3091 28.2447 12.5681 28.6408 12.5681C29.0445 12.5681 29.2197 12.3091 29.2731 11.6388C29.3568 10.6943 29.8063 9.66597 30.3852 9.10991L30.6213 8.8814L31.4135 9.04136C32.2438 9.20894 33.0283 9.51362 33.1045 9.70405C33.1807 9.9021 32.7617 10.7019 32.3885 11.0675C31.9695 11.4712 31.3373 11.7912 30.8041 11.8521C30.149 11.9283 30.0881 11.9511 29.9586 12.2253C29.8367 12.4767 29.8367 12.5072 29.9586 12.7585C30.0881 13.0328 30.149 13.0556 30.8041 13.1318C32.0533 13.2765 33.0436 14.3201 33.2035 15.6607C33.2721 16.2244 33.4397 16.4529 33.8129 16.4529C33.9729 16.4529 34.209 16.6662 34.9631 17.4888C36.0371 18.6543 36.4561 19.2255 36.5322 19.6216C36.6465 20.2462 36.2504 20.947 35.085 22.1582C34.0719 23.2169 33.7901 23.5673 33.5387 24.1158C33.3406 24.5423 33.3254 24.6261 33.3254 25.7078C33.3254 26.4238 33.3787 27.2388 33.4701 27.8787C33.6986 29.5087 33.5387 29.9429 32.5637 30.4C32.3123 30.5142 31.7334 30.6818 31.2688 30.7732C28.9227 31.215 28.5113 31.3521 27.8943 31.8853C27.483 32.2357 27.1326 32.7537 26.4242 34.0791C25.7692 35.313 25.1445 36.0443 24.6799 36.1281C24.2076 36.2195 23.4535 35.991 22.1129 35.3587C20.5818 34.6275 20.0486 34.4751 19.3098 34.5285C18.6242 34.5818 18.2815 34.696 16.8113 35.3968C15.5545 35.991 14.7852 36.2119 14.3205 36.1281C13.8559 36.0443 13.2313 35.313 12.5762 34.0791C11.8678 32.7537 11.5174 32.2357 11.1061 31.8853C10.4815 31.3521 10.0549 31.2074 7.73165 30.7732C6.78712 30.598 5.88829 30.2095 5.67501 29.8896C5.42365 29.5011 5.37794 28.9146 5.52267 27.8406C5.84259 25.4183 5.81974 24.9384 5.32462 23.933C5.06564 23.3998 4.85997 23.1408 4.0297 22.2724C3.48888 21.7087 2.94044 21.0841 2.81095 20.8861C2.15587 19.8425 2.38439 19.1798 3.96876 17.5726C5.37033 16.1482 5.72072 15.4474 5.72072 14.0535C5.72833 13.6345 5.67501 12.9794 5.60646 12.6062C5.25607 10.58 5.41603 9.86402 6.32247 9.40698C6.65763 9.23941 6.99279 9.15562 8.87423 8.81284C10.093 8.58433 11.007 8.08921 11.6164 7.32749C11.8068 7.09136 12.1572 6.51245 12.3934 6.05542C13.1094 4.65386 13.4979 4.09781 13.9777 3.80074C14.2748 3.61031 14.9299 3.61031 15.4707 3.80074ZM28.9455 5.22515C29.2502 5.71265 30.1567 6.61148 30.6137 6.87046C30.7889 6.96948 30.926 7.06851 30.926 7.09898C30.926 7.12183 30.766 7.2437 30.568 7.35796C30.1033 7.62456 29.1817 8.54624 28.915 9.01089C28.8008 9.20894 28.6789 9.3689 28.6561 9.3689C28.6256 9.3689 28.5037 9.20894 28.3818 9.01851C28.0391 8.47007 27.3764 7.79976 26.8432 7.44937C26.5766 7.27417 26.3557 7.10659 26.3557 7.08374C26.3557 7.06089 26.5613 6.91616 26.8127 6.7562C27.3231 6.42105 28.0391 5.69741 28.3742 5.15659C28.5037 4.95855 28.618 4.79858 28.6408 4.79858C28.6637 4.79858 28.8008 4.98901 28.9455 5.22515ZM33.9881 11.4865C34.1252 11.715 34.6736 12.2558 34.9326 12.4005C35.0774 12.4919 35.0774 12.4919 34.925 12.5834C34.8412 12.6291 34.5975 12.8423 34.3842 13.0556C34.1709 13.2689 33.9576 13.5126 33.9119 13.5964L33.8205 13.7488L33.7291 13.5964C33.6225 13.3984 32.9141 12.69 32.716 12.5834C32.5637 12.4919 32.5637 12.4919 32.7084 12.4005C32.9674 12.2558 33.5158 11.715 33.6529 11.4865C33.7215 11.3722 33.7977 11.2732 33.8205 11.2732C33.8434 11.2732 33.9195 11.3722 33.9881 11.4865Z" fill="#F82179"/>
<path d="M11.3805 9.23161C10.2227 10.1076 9.08771 11.334 8.28791 12.5679C7.49572 13.7867 7.38908 14.1447 7.71662 14.457C7.91467 14.6398 8.28791 14.6779 8.47072 14.5256C8.53166 14.4798 8.76779 14.1218 8.98869 13.7486C9.84182 12.309 10.8854 11.1359 12.2108 10.1304C12.4393 9.96286 12.6526 9.76481 12.6754 9.70387C12.7744 9.45251 12.7135 9.16305 12.5459 9.00309C12.2565 8.72887 11.9746 8.78219 11.3805 9.23161Z" fill="#F82179"/>
<path d="M18.853 8.95738C18.7311 8.97261 18.3502 9.02593 18.0151 9.07164C15.6157 9.38394 13.361 10.4732 11.7309 12.1109C10.2303 13.6115 9.23247 15.5234 8.78306 17.7171C8.5774 18.7531 8.59263 21.1677 8.82115 22.2189C9.29341 24.3898 10.2456 26.1646 11.7309 27.65C13.262 29.1886 15.0139 30.1027 17.36 30.5978C18.6702 30.872 20.5059 30.8873 21.6866 30.6359C23.8803 30.1636 25.6551 29.1962 27.2319 27.6119C28.8163 26.0351 29.7684 24.2755 30.2559 22.0285C30.4768 21.0154 30.492 18.9587 30.2864 17.9C29.418 13.4363 26.0588 10.039 21.6256 9.14019C20.9096 8.99547 19.3252 8.88883 18.853 8.95738ZM21.7094 10.4275C24.5887 11.0902 26.8663 12.8498 28.1383 15.3711C28.5116 16.1175 28.9077 17.3134 29.0752 18.2046C29.2581 19.1949 29.2504 20.9087 29.0676 21.7847C28.4354 24.7478 26.5692 27.2005 23.9336 28.5488C18.6702 31.2377 12.2717 28.6783 10.2989 23.0796C9.91802 21.9904 9.79615 21.2591 9.79615 20.0328C9.78853 15.2568 12.7668 11.433 17.2762 10.4427C18.236 10.2295 18.3426 10.2218 19.767 10.2447C20.7116 10.2675 21.2372 10.3132 21.7094 10.4275Z" fill="#F82179"/>
<path d="M18.9283 12.7131C18.5093 12.9035 18.3646 13.0787 17.2525 14.7012C16.7269 15.4781 16.2699 16.118 16.2394 16.1256C16.209 16.1332 15.4015 16.3693 14.4418 16.6512C12.5299 17.2148 12.2937 17.3367 12.0271 17.9385C11.8367 18.3498 11.8443 18.723 12.0576 19.1268C12.149 19.3096 12.6898 20.0637 13.2535 20.7949L14.2818 22.1279V24.1922V26.2641L14.5179 26.5535C14.7922 26.9115 15.3177 27.1934 15.691 27.1934C15.8357 27.1934 16.7574 26.9191 17.7324 26.5764L19.4996 25.9518L21.2744 26.5764C22.2418 26.9191 23.1558 27.1934 23.2929 27.1934C23.8338 27.1934 24.3441 26.8506 24.6183 26.3174C24.7707 26.0279 24.7783 25.9365 24.725 24.1008L24.6716 22.1889L25.7533 20.7873C26.3474 20.018 26.8959 19.2486 26.972 19.0811C27.231 18.525 27.1091 17.9461 26.6369 17.4586C26.3855 17.192 26.0047 17.0549 23.7119 16.3922L22.6988 16.1027L21.739 14.6936C21.2134 13.9242 20.6879 13.193 20.5736 13.0711C20.3222 12.7969 19.8424 12.5684 19.4996 12.5684C19.3549 12.5684 19.0959 12.6369 18.9283 12.7131ZM20.764 15.4248C21.3734 16.3313 21.9371 17.093 22.0056 17.1311C22.0742 17.1691 22.8968 17.4281 23.8414 17.7023C25.8142 18.2812 25.898 18.3117 25.898 18.4793C25.898 18.5479 25.4105 19.241 24.8088 20.018C24.207 20.8025 23.6586 21.5338 23.5824 21.648C23.4605 21.8309 23.4529 22.0594 23.4758 23.8951L23.4986 25.9365L23.2701 25.9289C23.1482 25.9289 22.2418 25.6395 21.2744 25.2891L19.4996 24.6568L17.6258 25.3195C16.5974 25.6852 15.6986 25.9746 15.63 25.9594C15.5082 25.9365 15.5006 25.7537 15.5234 23.8951C15.5463 22.0594 15.5386 21.8309 15.4168 21.648C15.3406 21.5338 14.7922 20.8025 14.1904 20.018C13.5886 19.241 13.1011 18.5479 13.1011 18.4793C13.1011 18.3117 13.1697 18.2889 15.1502 17.71C16.0947 17.4281 16.9174 17.1768 16.9935 17.1387C17.0621 17.1006 17.6258 16.3313 18.2351 15.4248C19.0273 14.2746 19.4006 13.7871 19.4996 13.7871C19.5986 13.7871 19.9718 14.2746 20.764 15.4248Z" fill="#F82179"/>
<path d="M7.16005 15.1808C6.9163 15.3027 6.76395 15.5997 6.81727 15.8435C6.92391 16.3081 7.54852 16.4681 7.83797 16.1025C8.04364 15.8435 8.04364 15.5921 7.83036 15.356C7.60946 15.1198 7.39618 15.0589 7.16005 15.1808Z" fill="#F82179"/>
<path d="M31.1922 23.6509C30.8418 23.9937 31.0093 24.5269 31.4968 24.6488C31.9158 24.7554 32.3119 24.2451 32.1367 23.8261C31.9691 23.4224 31.5045 23.331 31.1922 23.6509Z" fill="#F82179"/>
<path d="M30.5754 25.243C30.484 25.3039 30.225 25.6848 29.9813 26.0809C29.2043 27.3834 28.0617 28.686 26.9648 29.5086C26.3555 29.9657 26.2793 30.0571 26.2793 30.3389C26.2793 30.8112 26.6602 31.0702 27.0867 30.8873C27.6732 30.6436 29.3719 29.044 30.2021 27.9547C30.8801 27.0711 31.459 26.0352 31.459 25.7229C31.459 25.2582 30.9486 24.984 30.5754 25.243Z" fill="#F82179"/>
</svg>
