<svg width="38" height="38" viewBox="0 0 38 38" fill="none" xmlns="http://www.w3.org/2000/svg">
<path d="M17.5893 0.0811844C12.6538 0.652668 8.453 4.089 6.95378 8.79447C6.46393 10.3308 6.24128 12.0898 6.38229 13.3441C6.63464 15.6374 7.83698 18.4206 10.1823 22.1761C10.546 22.7624 10.8354 23.2523 10.8206 23.2597C10.8132 23.2745 10.3827 23.423 9.87057 23.5937C8.77956 23.9648 7.10221 24.7663 6.28581 25.3081C4.86081 26.2656 3.90339 27.3863 3.42839 28.6331C3.26511 29.0636 3.23542 29.2492 3.23542 30.021C3.228 30.7706 3.25768 31.0007 3.40612 31.4609C4.92018 36.0699 14.1307 38.957 23.3339 37.6952C29.1674 36.9011 33.4721 34.5335 34.578 31.5202C34.7487 31.0452 34.771 30.882 34.771 30.0581C34.7635 29.2492 34.7413 29.071 34.5706 28.6331C34.0882 27.3714 33.1159 26.2433 31.6909 25.2933C30.8522 24.7367 29.2491 23.9722 28.1655 23.6085C27.6385 23.4304 27.1858 23.2745 27.1784 23.2597C27.1635 23.2523 27.453 22.7624 27.8167 22.1761C29.687 19.1777 30.919 16.6023 31.3866 14.6874C31.9581 12.3421 31.587 9.61829 30.3549 7.08743C28.0542 2.34486 22.8366 -0.519989 17.5893 0.0811844ZM19.9717 1.63978C21.4932 1.78822 22.6585 2.1222 23.9053 2.74564C26.9335 4.2597 29.0339 6.92415 29.8057 10.2417C30.0358 11.2214 30.1249 12.7949 29.9913 13.6261C29.4198 17.1218 25.9241 22.896 20.0905 29.9617C19.5116 30.6667 19.0217 31.2382 18.9995 31.2382C18.903 31.2308 16.0753 27.7351 14.8358 26.0874C10.9171 20.8773 8.57917 16.6542 8.04479 13.8117C7.87409 12.9136 7.94089 11.3031 8.19323 10.2417C9.29909 5.52884 13.1362 2.13704 17.9233 1.63978C18.7842 1.55071 19.1182 1.55071 19.9717 1.63978ZM12.0971 25.0261C13.4628 27.0523 18.1831 32.9081 18.6432 33.1456C19.1628 33.4128 19.3632 33.2718 20.6694 31.7281C22.7253 29.2937 24.5585 26.9335 26.169 24.6476C26.2135 24.5956 27.9725 25.1894 28.7667 25.5308C31.4385 26.6738 33.0788 28.262 33.2198 29.8429C33.4573 32.3218 30.0135 34.7785 24.8182 35.8398C20.7436 36.671 16.1049 36.5894 12.2085 35.6171C7.53268 34.4519 4.5862 32.1734 4.77175 29.8577C4.88307 28.4699 6.2487 26.9929 8.44557 25.8945C8.84636 25.6941 9.41042 25.4417 9.69245 25.3378C10.1452 25.1597 11.7038 24.6476 11.8003 24.6476C11.8225 24.6476 11.9561 24.8183 12.0971 25.0261Z" fill="#F82179"/>
<path d="M18.124 4.00706C13.6709 4.6305 10.8803 8.99456 12.2236 13.2473C12.81 15.1028 14.1904 16.6762 15.9717 17.5149C17.1072 18.0418 17.5971 18.1457 19.0369 18.1383C20.1873 18.1383 20.358 18.116 20.9517 17.9379C22.4658 17.4703 23.7127 16.6094 24.6775 15.3551C25.6721 14.0785 26.2064 12.3196 26.1025 10.6942C25.8947 7.5473 23.7646 4.95706 20.7439 4.19261C19.9572 3.99222 18.8142 3.91058 18.124 4.00706ZM20.2096 5.68441C20.9072 5.84026 21.9611 6.35237 22.5326 6.81995C23.3713 7.50276 24.0318 8.54925 24.351 9.6848C24.5736 10.4864 24.5736 11.6664 24.351 12.4903C23.8389 14.4274 22.2283 15.9934 20.2615 16.4832C19.6678 16.6317 18.1982 16.6094 17.5896 16.4461C16.5728 16.1715 15.6674 15.6075 14.8955 14.7614C13.8342 13.6258 13.3146 12.0078 13.5076 10.4567C13.7896 8.14105 15.4521 6.25589 17.701 5.70667C18.3689 5.54339 19.5119 5.52855 20.2096 5.68441Z" fill="#F82179"/>
</svg>
