<svg width="36" height="12" viewBox="0 0 36 12" fill="none" xmlns="http://www.w3.org/2000/svg">
<path d="M13.1992 11.6862L15.0278 0.376953H17.8849L16.1135 11.6862H13.1992Z" fill="white"/>
<path d="M13.1992 11.6862L15.5421 0.376953H17.8849L16.1135 11.6862H13.1992Z" fill="white"/>
<path d="M26.4577 0.502617C25.8863 0.251308 24.972 0 23.8291 0C20.972 0 18.9148 1.57068 18.9148 3.83245C18.9148 5.52878 20.3434 6.40836 21.4863 6.97381C22.6291 7.53925 22.972 7.91621 22.972 8.41883C22.972 9.17276 22.0577 9.54972 21.2577 9.54972C20.1149 9.54972 19.4863 9.36124 18.5148 8.92145L18.1148 8.73297L17.7148 11.3089C18.4006 11.623 19.6577 11.9371 20.972 11.9371C24.0006 11.9371 26.0006 10.3665 26.0006 7.97904C26.0006 6.65967 25.2577 5.65444 23.5434 4.83769C22.5149 4.27224 21.8863 3.95811 21.8863 3.39266C21.8863 2.89005 22.4006 2.38743 23.5434 2.38743C24.5149 2.38743 25.2006 2.57591 25.7149 2.82722L26.0006 2.95287L26.4577 0.502617Z" fill="white"/>
<path d="M26.4577 0.502617C25.8863 0.251308 24.972 0 23.8291 0C20.972 0 19.4291 1.57068 19.4291 3.83245C19.4291 5.52878 20.3434 6.40836 21.4863 6.97381C22.6291 7.53925 22.972 7.91621 22.972 8.41883C22.972 9.17276 22.0577 9.54972 21.2577 9.54972C20.1149 9.54972 19.4863 9.36124 18.5148 8.92145L18.1148 8.73297L17.7148 11.3089C18.4006 11.623 19.6577 11.9371 20.972 11.9371C24.0006 11.9371 26.0006 10.3665 26.0006 7.97904C26.0006 6.65967 25.2577 5.65444 23.5434 4.83769C22.5149 4.27224 21.8863 3.95811 21.8863 3.39266C21.8863 2.89005 22.4006 2.38743 23.5434 2.38743C24.5149 2.38743 25.2006 2.57591 25.7149 2.82722L26.0006 2.95287L26.4577 0.502617Z" fill="white"/>
<path d="M31.371 0.376953C30.6853 0.376953 30.171 0.439782 29.8853 1.19373L25.5996 11.6862H28.6853L29.2567 9.80132H32.9139L33.2567 11.6862H35.9996L33.5996 0.376953H31.371ZM30.0567 7.91645C30.2282 7.35098 31.1996 4.5865 31.1996 4.5865C31.1996 4.5865 31.4282 3.89538 31.5996 3.45558L31.771 4.52367C31.771 4.52367 32.3425 7.35098 32.4567 7.97927H30.0567V7.91645Z" fill="white"/>
<path d="M32.0567 0.376953C31.371 0.376953 30.8567 0.439782 30.571 1.19373L25.5996 11.6862H28.6853L29.2567 9.80132H32.9139L33.2567 11.6862H35.9996L33.5996 0.376953H32.0567ZM30.0567 7.91645C30.2853 7.28815 31.1996 4.5865 31.1996 4.5865C31.1996 4.5865 31.4282 3.89538 31.5996 3.45558L31.771 4.52367C31.771 4.52367 32.3425 7.35098 32.4567 7.97927H30.0567V7.91645Z" fill="white"/>
<path d="M7.94197 8.29309L7.65625 6.65953C7.14197 4.77466 5.48482 2.7013 3.65625 1.69604L6.22768 11.7487H9.3134L13.942 0.439453H10.8563L7.94197 8.29309Z" fill="white"/>
<path d="M7.94197 8.29309L7.65625 6.65953C7.14197 4.77466 5.48482 2.7013 3.65625 1.69604L6.22768 11.7487H9.3134L13.942 0.439453H11.4277L7.94197 8.29309Z" fill="white"/>
<path d="M0 0.376953L0.514286 0.502613C4.17143 1.44506 6.68572 3.83259 7.65715 6.65993L6.62857 1.3194C6.45715 0.565442 5.94286 0.376953 5.31429 0.376953H0Z" fill="white"/>
<path d="M0 0.376953C3.65714 1.31935 6.68572 3.76959 7.65715 6.59678L6.68572 2.1361C6.51429 1.38218 5.94286 0.942392 5.31429 0.942392L0 0.376953Z" fill="white"/>
<path d="M0 0.376953C3.65714 1.31935 6.68572 3.76959 7.65715 6.59678L6.97143 4.14655C6.8 3.39263 6.57143 2.63871 5.77143 2.32458L0 0.376953Z" fill="white"/>
<path d="M10.8006 7.91662L8.8577 5.78046L7.94341 8.16793L7.71484 6.59722C7.20056 4.71237 5.54341 2.63904 3.71484 1.63379L6.28627 11.6863H9.37198L10.8006 7.91662Z" fill="white"/>
<path d="M16.1155 11.6864L13.6583 8.92188L13.2012 11.6864H16.1155Z" fill="white"/>
<path d="M22.6863 7.79102C22.9148 8.04233 23.0291 8.23081 22.972 8.48213C22.972 9.23607 22.0577 9.61304 21.2577 9.61304C20.1148 9.61304 19.4863 9.42455 18.5148 8.98476L18.1148 8.79627L17.7148 11.3722C18.4006 11.6864 19.6577 12.0005 20.972 12.0005C22.8006 12.0005 24.2863 11.4351 25.1434 10.4298L22.6863 7.79102Z" fill="white"/>
<path d="M26 11.6865H28.6857L29.2571 9.80167H32.9143L33.2571 11.6865H36L35.0286 7.10007L31.6 3.45605L31.7714 4.4613C31.7714 4.4613 32.3429 7.28856 32.4571 7.91683H30.0571C30.2857 7.28856 31.2 4.58696 31.2 4.58696C31.2 4.58696 31.4286 3.89585 31.6 3.45605" fill="white"/>
</svg>
