<svg width="34" height="21" viewBox="0 0 34 21" fill="none" xmlns="http://www.w3.org/2000/svg">
<path d="M34 10.5C34 4.73641 29.5032 0 23.9097 0C21.4968 0 19.3032 0.855978 17.5484 2.33967C18.8645 3.65217 19.9065 5.30707 20.4 7.19022H19.5774C19.029 5.53533 18.1516 4.05163 16.9452 2.85326C15.7387 4.05163 14.8613 5.53533 14.3129 7.19022H13.4903C14.0387 5.30707 15.0258 3.65217 16.3419 2.33967C14.5871 0.855978 12.4484 0 10.0355 0C4.49677 0 0 4.73641 0 10.5C0 16.2636 4.49677 21 10.0903 21C12.5032 21 14.6968 20.087 16.3968 18.6603C15.0806 17.3478 14.0935 15.6929 13.5452 13.8098H14.3677C14.9161 15.4647 15.7935 16.9484 17 18.1467C18.2065 16.9484 19.1387 15.4647 19.6323 13.8098H20.4548C19.9065 15.6929 18.9194 17.3478 17.6032 18.6603C19.3581 20.144 21.5516 21 23.9645 21C29.5032 21 34 16.2636 34 10.5Z" fill="white"/>
<path d="M26.5957 12.9535L27.3086 9.07324H28.186L28.2957 9.47268C28.4602 9.30149 28.7344 9.07324 29.2828 9.07324L29.0086 10.1004C28.7344 10.1004 28.2957 10.0433 27.9666 11.1846L27.6376 12.9535H26.5957Z" fill="#100935"/>
<path d="M13.1617 8.10254H14.1488L13.9295 9.12972H14.4778L14.3133 9.92864H13.8198L13.5456 11.4694C13.4908 11.7547 13.5456 12.0401 14.094 11.9259L13.9843 12.7819C13.7649 12.9531 13.4908 12.9531 13.2166 12.9531C12.9972 12.9531 12.2295 12.7819 12.394 11.7547L13.1617 8.10254Z" fill="#100935"/>
<path d="M17.5476 11.2416C17.6573 10.6139 17.9315 9.07324 16.1766 9.07324C14.5315 9.07324 14.3121 10.7851 14.3121 11.0134C14.2573 11.2416 14.2573 12.9535 16.0121 12.9535C16.4508 12.9535 17.054 12.8964 17.3282 12.7823L17.4927 11.9834C17.3282 12.0405 16.7798 12.0976 16.3411 12.0976C15.9573 12.0976 15.2992 12.0976 15.4089 11.2416H17.5476Z" fill="#100935"/>
<path d="M12.1735 9.98576L12.3929 9.18682C11.8994 9.01563 11.5155 9.01563 11.4058 9.01563C11.2413 9.01563 10.0349 9.01562 9.87035 9.92869C9.70583 10.6706 9.98002 10.9559 10.1994 11.07C10.5832 11.2412 10.8026 11.4124 11.0219 11.5266C11.2961 11.6407 11.2413 12.0972 10.9123 12.0972C10.7478 12.0972 10.0897 12.1543 9.59615 11.9831L9.43164 12.782C9.92518 12.8961 10.2542 12.8961 10.6381 12.8961C10.9123 12.8961 12.1187 12.9532 12.2832 11.8119C12.3929 11.2412 12.1187 11.013 11.9542 10.8418C11.7348 10.7276 11.4607 10.4994 11.2413 10.4423C11.0219 10.3282 10.8574 9.98575 11.2413 9.87162C11.4058 9.92869 11.8994 9.92869 12.1735 9.98576Z" fill="#100935"/>
<path d="M5.59306 12.9529L6.47048 8.27344H4.77049L3.56404 11.1268L3.34469 8.27344H1.75437L0.876953 12.9529H1.86405L2.52211 9.58596L2.7963 12.9529H3.72856L5.15436 9.64303L4.55113 12.9529H5.59306Z" fill="#100935"/>
<path d="M6.7444 9.18733L6.57988 10.0434C6.85408 10.0434 7.51215 9.92923 7.84118 9.92923C8.17021 9.92923 8.60892 9.87216 8.44441 10.4429C8.17021 10.4429 6.36053 10.1575 6.08633 11.8125C5.97666 12.6115 6.63472 13.011 7.12827 13.011C7.62182 13.011 7.78634 12.8968 7.95086 12.7827L8.06054 13.011H8.9928L9.37667 10.8994C9.48635 10.3858 9.65086 9.13026 7.95086 9.13026C7.7315 9.07319 7.40247 9.07319 6.7444 9.18733Z" fill="#100935"/>
<path d="M23.1417 9.3584C22.8675 9.1872 22.703 9.1872 22.374 9.1872C22.045 9.1872 21.2772 9.5296 21.1676 10.4427C21.003 11.584 21.7159 12.0976 22.7579 11.7552L23.0321 12.7253C22.703 12.8965 22.374 12.9536 21.8256 12.9536C20.7837 12.9536 19.6321 11.9835 20.1256 9.98613C20.5095 8.55946 21.7159 7.9888 22.4288 8.04586C23.2514 8.10293 23.5804 8.38826 23.7998 8.6736L23.1417 9.3584Z" fill="#100935"/>
<path d="M31.7509 9.52957C31.5315 9.35837 31.4218 9.07305 30.9831 9.07305C30.4347 9.07305 29.5573 8.95892 29.0637 10.7279C28.7347 11.9263 29.3928 12.9534 30.1057 12.9534C30.4347 12.9534 30.7638 12.7822 30.9831 12.6681L31.0928 12.9534H32.1896L33.067 8.0459H32.0251L31.7509 9.52957Z" fill="#100935"/>
<path d="M23.8538 9.18733L23.6893 10.0434C23.9635 10.0434 24.6215 9.92923 24.9506 9.92923C25.2796 9.92923 25.6635 9.87216 25.5538 10.4429C25.2796 10.4429 23.4699 10.1575 23.1957 11.8125C23.086 12.6115 23.7441 13.011 24.2377 13.011C24.7312 13.011 24.8957 12.8968 25.0602 12.7827L25.1699 13.011H26.1022L26.486 10.8994C26.5957 10.3858 26.7602 9.13026 25.0602 9.13026C24.8957 9.07319 24.5118 9.07319 23.8538 9.18733Z" fill="#100935"/>
<path d="M15.4102 10.4997H16.6715C16.7263 10.1005 16.6166 9.81543 16.2327 9.81543C15.794 9.81543 15.5198 10.0435 15.4102 10.4997Z" fill="white"/>
<path d="M8.28123 11.2414C8.1167 11.2414 7.73281 11.1273 7.40375 11.3556C7.0747 11.5839 6.96502 11.9836 7.34891 12.0977C7.67796 12.2119 8.1167 11.9836 8.22639 11.641L8.28123 11.2414Z" fill="white"/>
<path d="M31.4224 11.127C31.5321 10.7846 31.4773 10.3281 31.3676 10.157C31.0385 9.70048 30.3256 10.0428 30.1063 10.8987C29.9417 11.4693 30.2708 11.8687 30.5998 11.8687C30.9837 11.8687 31.2031 11.5834 31.4224 11.127Z" fill="white"/>
<path d="M25.4452 11.2414C25.2807 11.2414 24.8968 11.1273 24.5678 11.3556C24.2388 11.5839 24.1291 11.9836 24.513 12.0977C24.842 12.2119 25.3355 11.9836 25.3904 11.641L25.4452 11.2414Z" fill="white"/>
<path d="M17.5488 12.9544L18.2617 9.13086H19.1391L19.2488 9.53034C19.4133 9.35913 19.6875 9.13086 20.2359 9.13086L19.9617 10.1581C19.7423 10.1581 19.2488 10.101 18.9198 11.2424L18.5907 13.0115H17.5488" fill="#100935"/>
<path d="M10.0907 0C5.64882 0 1.86495 3.02442 0.548828 7.19012H13.6004C14.1488 5.307 15.1359 3.65213 16.452 2.33964C14.6423 0.913032 12.4488 0 10.0907 0Z" fill="white"/>
<path d="M16.9995 2.91016C15.793 4.10858 14.9156 5.53527 14.3672 7.2473H19.6317C19.0833 5.59234 18.2059 4.10858 16.9995 2.91016Z" fill="white"/>
<path d="M23.9101 0C21.4972 0 19.3037 0.855967 17.5488 2.33964C18.865 3.65213 19.852 5.307 20.4004 7.19012H33.452C32.1907 3.02442 28.4069 0 23.9101 0Z" fill="white"/>
</svg>
