<svg width="59" height="37" viewBox="0 0 59 37" fill="none" xmlns="http://www.w3.org/2000/svg">
<path fill-rule="evenodd" clip-rule="evenodd" d="M-2.61382e-07 3.64611C-1.17025e-07 1.99486 1.07089 0.65625 2.39189 0.65625L56.6081 0.656255C57.9291 0.656255 59 1.99486 59 3.64612C59 5.29738 57.9291 6.63598 56.6081 6.63598L2.39189 6.63598C1.07089 6.63598 -4.0574e-07 5.29737 -2.61382e-07 3.64611Z" fill="#F82179"/>
<path fill-rule="evenodd" clip-rule="evenodd" d="M-2.61382e-07 33.5446C-1.17025e-07 31.8933 1.07089 30.5547 2.39189 30.5547L56.6081 30.5547C57.9291 30.5547 59 31.8933 59 33.5446C59 35.1958 57.9291 36.5344 56.6081 36.5344L2.39189 36.5344C1.07089 36.5344 -4.0574e-07 35.1958 -2.61382e-07 33.5446Z" fill="#F82179"/>
<path fill-rule="evenodd" clip-rule="evenodd" d="M17.541 18.5953C17.541 16.9441 18.6119 15.6055 19.9329 15.6055L56.6086 15.6055C57.9296 15.6055 59.0005 16.9441 59.0005 18.5953C59.0005 20.2466 57.9296 21.5852 56.6086 21.5852L19.9329 21.5852C18.6119 21.5852 17.541 20.2466 17.541 18.5953Z" fill="#F82179"/>
</svg>
