<svg width="16" height="20" viewBox="0 0 16 20" fill="none" xmlns="http://www.w3.org/2000/svg">
<path d="M4.90362 0.0390592C4.45079 0.12501 3.97756 0.44928 3.73687 0.83606C3.56553 1.12126 3.51249 1.34786 3.48394 1.91045C3.44722 2.64884 3.52881 2.59806 2.34574 2.6215C1.50535 2.63712 1.38705 2.64884 1.17899 2.72698C0.689444 2.9106 0.301887 3.26222 0.122387 3.69588C0.0285569 3.91076 0.0244773 3.97327 0.0122387 4.98124L0 6.04391L0.101989 6.1533L0.199898 6.2666H8H15.8001L15.898 6.1533L16 6.04391L15.9878 4.98124C15.9755 3.97327 15.9714 3.91076 15.8776 3.69588C15.6981 3.26222 15.3106 2.9106 14.821 2.72698C14.613 2.64884 14.4946 2.63712 13.6543 2.6215C12.4712 2.59806 12.5528 2.64884 12.5161 1.91045C12.5038 1.62134 12.463 1.30098 12.4304 1.1994C12.2346 0.609461 11.7002 0.152359 11.0637 0.0351524C10.7945 -0.0117302 5.16471 -0.0117302 4.90362 0.0390592ZM10.9414 1.41428C11.0637 1.50413 11.1005 1.63306 11.1005 1.98858C11.1005 2.34411 11.0637 2.47304 10.9414 2.56289C10.8924 2.59806 10.1948 2.60978 7.99184 2.61368H5.11168L5.00561 2.49257C4.9077 2.38318 4.89954 2.34411 4.89954 2.00421C4.89954 1.63306 4.93626 1.50413 5.05864 1.41428C5.15247 1.34395 10.8475 1.34395 10.9414 1.41428Z" fill="#C7C7C7"/>
<path d="M1.73689 7.14056C1.69201 7.16009 1.62266 7.20697 1.58186 7.24995C1.51659 7.32418 1.51251 7.62891 1.52067 13.0282L1.53291 18.7283L1.67161 19.0096C1.91231 19.498 2.38961 19.8574 2.94035 19.959C3.23408 20.0137 12.7639 20.0137 13.0617 19.959C13.6859 19.8457 14.204 19.4042 14.4202 18.8065C14.4814 18.6346 14.4855 18.1149 14.4855 12.9696C14.4814 6.86708 14.4977 7.23041 14.2652 7.14446C14.1306 7.09758 1.86335 7.09367 1.73689 7.14056ZM4.72312 8.63298C4.8455 8.69158 4.93526 8.76972 5.01277 8.89474L5.12291 9.07836V13.3954C5.12291 15.7708 5.11068 17.7594 5.09436 17.818C5.04948 17.9548 4.87814 18.1501 4.72312 18.2282C4.56402 18.3064 4.25397 18.3064 4.09895 18.2282C3.948 18.154 3.81338 18.0134 3.76034 17.8766C3.72771 17.8024 3.71547 16.4076 3.71547 13.4306C3.71547 8.64861 3.69915 8.93381 3.97656 8.72284C4.22133 8.5314 4.44979 8.50405 4.72312 8.63298ZM8.38248 8.67205C8.45999 8.72284 8.56198 8.82832 8.61093 8.90646C8.69252 9.05101 8.69252 9.06664 8.68436 13.4658C8.67212 17.8571 8.67212 17.8844 8.58645 17.9899C8.27233 18.3962 7.72567 18.3962 7.41154 17.9899C7.32587 17.8844 7.32587 17.8571 7.31363 13.5009C7.30955 11.0904 7.31363 9.07836 7.32587 9.03148C7.35443 8.90646 7.58696 8.66814 7.73383 8.60172C7.90925 8.52749 8.21114 8.55875 8.38248 8.67205ZM11.9929 8.6994C12.3029 8.93771 12.2825 8.56656 12.2825 13.4228C12.2825 16.4037 12.2703 17.8024 12.2377 17.8766C12.1846 18.0134 12.05 18.154 11.899 18.2282C11.744 18.3064 11.434 18.3064 11.2749 18.2282C11.1199 18.1501 10.9485 17.9548 10.9036 17.818C10.8873 17.7594 10.8751 15.7708 10.8751 13.3954V9.07836L10.9852 8.89865C11.2055 8.54312 11.6706 8.44936 11.9929 8.6994Z" fill="#C7C7C7"/>
</svg>
