<svg width="57" height="33" viewBox="0 0 57 33" fill="none" xmlns="http://www.w3.org/2000/svg">
<path d="M44.573 1.60614C39.8223 3.52495 36.2145 9.88868 35.842 10.3882C35.8017 10.4417 35.7539 10.5044 35.7136 10.5586C35.7054 10.5571 35.7024 10.5525 35.6927 10.5509C34.8328 10.4257 28.4294 10.2042 28.4294 10.2042C25.2314 10.2042 22.07 10.4257 21.2086 10.5509C21.1989 10.5517 21.1966 10.5563 21.1877 10.5586C21.1474 10.5044 21.0996 10.4417 21.06 10.3882C20.6883 9.88945 17.0805 3.52572 12.3283 1.60614C6.74679 -0.65031 0 1.18907 0 1.18907C0 1.18907 4.86563 1.13865 7.09391 5.51787C8.77277 8.81393 6.95954 11.2835 6.95954 11.2835C6.95954 11.2835 9.2983 10.402 12.3268 12.8127C14.3386 14.4161 15.4136 19.0863 15.4136 19.0863C15.4136 19.0863 18.8892 18.2453 20.645 19.0176C24.7544 20.8203 27.0976 23.4724 27.9957 24.6556C27.9613 27.268 27.8113 29.9179 27.6052 30.2517C26.8162 31.5258 25.5263 31.5755 24.738 31.7794C23.9519 31.9795 23.2928 32.0605 23.6533 32.46C24.1878 33.0505 28.3189 32.9985 28.451 32.9955C28.5824 32.9985 32.7135 33.0505 33.2472 32.46C33.6085 32.062 32.9509 31.9795 32.1641 31.7794C31.375 31.5755 30.0851 31.5258 29.2968 30.2517C29.0915 29.9171 28.9392 27.268 28.9079 24.6556C29.8044 23.4724 32.1484 20.8203 36.2563 19.0176C38.0121 18.2453 41.4892 19.0863 41.4892 19.0863C41.4892 19.0863 42.5627 14.4146 44.5737 12.8127C47.6045 10.402 49.9425 11.2835 49.9425 11.2835C49.9425 11.2835 48.1308 8.81393 49.8081 5.51787C52.0357 1.13865 56.902 1.18907 56.902 1.18907C56.902 1.18907 50.1538 -0.65031 44.573 1.60614ZM25.4277 18.6723C24.5752 17.7633 22.4545 15.2136 22.4545 15.2136C22.4545 15.2136 24.4021 16.5984 25.7637 18.3515C27.1812 20.1817 27.9986 22.9461 27.9986 22.9736C27.9986 23.0011 26.178 19.4713 25.4277 18.6723ZM31.8229 18.214C31.0734 19.0122 29.249 22.5451 29.249 22.5153C29.249 22.487 30.0672 19.7242 31.487 17.8932C32.8479 16.1378 34.7954 14.7552 34.7954 14.7552C34.7954 14.7552 32.6754 17.3012 31.8229 18.214Z" fill="url(#paint0_linear_415_678)"/>
<defs>
<linearGradient id="paint0_linear_415_678" x1="28.4511" y1="32.9981" x2="28.4511" y2="0.482868" gradientUnits="userSpaceOnUse">
<stop stop-color="#F82179"/>
<stop offset="1" stop-color="#DD1C72"/>
</linearGradient>
</defs>
</svg>
