<svg width="27" height="27" viewBox="0 0 27 27" fill="none" xmlns="http://www.w3.org/2000/svg">
<path d="M5.44544 0.0433979C3.0899 0.349722 1.08823 1.9817 0.327698 4.21047C-0.020879 5.22452 0.000246906 4.67524 0.000246906 13.5059C0.000246906 21.0584 0.00552837 21.5337 0.0953133 21.9562C0.517831 23.9156 1.71672 25.4895 3.4332 26.3398C4.03529 26.6356 4.41027 26.7676 5.04405 26.9049C5.46656 26.9947 5.9419 27 13.4944 27C21.0469 27 21.5222 26.9947 21.9447 26.9049C23.9042 26.4824 25.478 25.2835 26.3284 23.567C26.6241 22.965 26.7562 22.59 26.8935 21.9562C26.978 21.5495 26.9885 21.2115 26.9885 18.4176C26.9885 15.3438 26.9885 15.328 26.8723 15.1114C26.809 14.9952 26.6611 14.8104 26.5449 14.7047C25.9903 14.203 25.0714 14.3509 24.6647 15.0058L24.5063 15.2646L24.4746 18.3331C24.4429 21.7344 24.4482 21.6499 24.0785 22.4104C23.6137 23.3558 22.737 24.0688 21.6807 24.3698C21.3532 24.4596 20.936 24.4649 13.4944 24.4649C6.03696 24.4649 5.63557 24.4596 5.30812 24.3698C3.98775 23.9948 3.0054 23.0125 2.63042 21.6921C2.54063 21.3647 2.53535 20.9474 2.53535 13.5059C2.53535 6.08539 2.54063 5.64175 2.63042 5.31958C2.92618 4.25801 3.63918 3.38657 4.58984 2.92708C5.36094 2.54681 5.26587 2.55737 8.66713 2.52569L11.7357 2.494L11.9945 2.33555C12.6494 1.92888 12.7972 1.0099 12.2955 0.455351C12.1899 0.339159 12.005 0.191278 11.8888 0.127901C11.6723 0.0117092 11.6459 0.0117092 8.74107 0.00642776C7.13023 0.00114632 5.64613 0.0169907 5.44544 0.0433979Z" fill="#969696"/>
<path d="M17.4065 0.0585251C17.153 0.148311 16.8361 0.43351 16.704 0.68702C16.4558 1.15707 16.5826 1.83838 16.984 2.17111C17.3801 2.50913 17.2375 2.49328 20.0683 2.51969L22.6563 2.5461L17.4963 7.72193C12.7693 12.47 12.3363 12.9189 12.2782 13.1354C12.0141 14.1336 12.8644 14.9839 13.8626 14.7199C14.0792 14.6618 14.5175 14.2393 19.292 9.47538L24.4784 4.28898V6.85049V9.412L24.6051 9.68136C24.8533 10.2095 25.4449 10.5158 25.9941 10.3891C26.3427 10.3151 26.6807 10.0616 26.855 9.7553L26.9871 9.51763V5.21324C26.9871 1.11482 26.9818 0.898278 26.8867 0.72399C26.7494 0.465199 26.5487 0.259221 26.3005 0.127185C26.0892 0.0109921 26.0839 0.0109921 21.8376 0.000429153C18.5842 -0.00485229 17.5438 0.0057106 17.4065 0.0585251Z" fill="#969696"/>
</svg>
