<svg width="27" height="27" viewBox="0 0 27 27" fill="none" xmlns="http://www.w3.org/2000/svg">
<path d="M5.44544 0.0375385C3.0899 0.343863 1.08823 1.97584 0.327698 4.20461C-0.020879 5.21866 0.000246906 4.66938 0.000246906 13.5C0.000246906 21.0525 0.00552837 21.5278 0.0953133 21.9503C0.517831 23.9098 1.71672 25.4836 3.4332 26.334C4.03529 26.6297 4.41027 26.7618 5.04405 26.8991C5.46656 26.9889 5.9419 26.9941 13.4944 26.9941C21.0469 26.9941 21.5222 26.9889 21.9447 26.8991C23.9042 26.4766 25.478 25.2777 26.3284 23.5612C26.6241 22.9591 26.7562 22.5841 26.8935 21.9503C26.978 21.5437 26.9885 21.2057 26.9885 18.4118C26.9885 15.3379 26.9885 15.3221 26.8723 15.1056C26.809 14.9894 26.6611 14.8045 26.5449 14.6989C25.9903 14.1971 25.0714 14.345 24.6647 14.9999L24.5063 15.2587L24.4746 18.3273C24.4429 21.7285 24.4482 21.644 24.0785 22.4045C23.6137 23.3499 22.737 24.0629 21.6807 24.364C21.3532 24.4538 20.936 24.459 13.4944 24.459C6.03696 24.459 5.63557 24.4538 5.30812 24.364C3.98775 23.989 3.0054 23.0066 2.63042 21.6863C2.54063 21.3588 2.53535 20.9416 2.53535 13.5C2.53535 6.07953 2.54063 5.63589 2.63042 5.31372C2.92618 4.25215 3.63918 3.38071 4.58984 2.92122C5.36094 2.54095 5.26587 2.55152 8.66713 2.51983L11.7357 2.48814L11.9945 2.32969C12.6494 1.92302 12.7972 1.00405 12.2955 0.449492C12.1899 0.3333 12.005 0.185419 11.8888 0.122042C11.6723 0.00584984 11.6459 0.00584984 8.74107 0.00056839C7.13023 -0.00471306 5.64613 0.0111313 5.44544 0.0375385Z" fill="#969696"/>
<path d="M19.3872 17.9299C19.662 17.8326 20.0056 17.5237 20.1487 17.249C20.4179 16.7398 20.2804 16.0017 19.8453 15.6413C19.4158 15.2751 19.5704 15.2923 16.5012 15.2636L13.6954 15.235L19.2898 9.62792C24.4147 4.48425 24.8842 3.99792 24.9472 3.76334C25.2335 2.68197 24.3116 1.7608 23.2294 2.04688C22.9946 2.10981 22.5194 2.56754 17.3429 7.72837L11.7199 13.3469V10.572V7.79703L11.5825 7.50523C11.3133 6.93307 10.672 6.60122 10.0765 6.73854C9.69859 6.81864 9.33212 7.09328 9.14315 7.42513L9 7.6826V12.3457C9 16.7856 9.00573 17.0202 9.1088 17.209C9.25768 17.4893 9.47527 17.7125 9.7444 17.8555C9.97344 17.9814 9.97917 17.9814 14.583 17.9928C18.1102 17.9985 19.2383 17.9871 19.3872 17.9299Z" fill="#969696"/>
</svg>
