<svg width="217" height="36" viewBox="0 0 217 36" fill="none" xmlns="http://www.w3.org/2000/svg">
<path d="M212.019 4.21564V19.6774H208.27V4.21564H203.262V0.822266H216.999V4.21564H212.019Z" fill="#F82179"/>
<path d="M188.781 0.822266H201.78V4.18828H192.53V8.5121H200.439V11.8781H192.53V16.3388H201.78V19.6774H188.781V0.822266Z" fill="#F82179"/>
<path d="M172.988 0.822266H185.987V4.18828H176.737V8.5121H184.646V11.8781H176.737V16.3388H185.987V19.6774H172.988V0.822266Z" fill="#F82179"/>
<path d="M165.112 0.822266C166.061 0.822266 166.873 1.00471 167.548 1.36958C168.241 1.71622 168.807 2.17232 169.245 2.73788C169.701 3.30345 170.029 3.94198 170.23 4.6535C170.449 5.34677 170.558 6.03092 170.558 6.70594C170.558 7.19853 170.485 7.70936 170.339 8.23844C170.211 8.74927 170.011 9.24186 169.737 9.7162C169.482 10.1723 169.162 10.601 168.779 11.0024C168.396 11.3855 167.958 11.7048 167.466 11.9602L170.859 19.6774H166.809C166.736 19.4767 166.617 19.1939 166.453 18.8291C166.307 18.4459 166.134 18.0263 165.933 17.5702C165.751 17.1141 165.55 16.6398 165.331 16.1472C165.131 15.6364 164.93 15.1529 164.729 14.6968C164.547 14.2407 164.373 13.8302 164.209 13.4653C164.063 13.0822 163.945 12.7903 163.853 12.5896H160.46V19.6774H156.711V0.822266H165.112ZM160.46 9.19625H164.264C165.14 9.19625 165.796 8.9682 166.234 8.5121C166.672 8.03775 166.891 7.4357 166.891 6.70594C166.891 5.97619 166.663 5.37414 166.207 4.89979C165.769 4.42545 165.121 4.18828 164.264 4.18828H160.46V9.19625Z" fill="#F82179"/>
<path d="M149.779 4.21564V19.6774H146.029V4.21564H141.021V0.822266H154.759V4.21564H149.779Z" fill="#F82179"/>
<path d="M139.772 14.2318C139.772 15.144 139.589 15.9559 139.224 16.6674C138.859 17.3607 138.349 17.9445 137.692 18.4188C137.053 18.8749 136.296 19.2216 135.42 19.4587C134.545 19.6959 133.596 19.8145 132.574 19.8145C131.206 19.8145 129.92 19.6229 128.716 19.2398C127.512 18.8567 126.335 18.1817 125.186 17.2147L127.293 14.4781C128.114 15.1167 128.962 15.6093 129.838 15.9559C130.732 16.2843 131.617 16.4485 132.492 16.4485C133.094 16.4485 133.605 16.3938 134.025 16.2843C134.444 16.1566 134.782 15.9924 135.037 15.7917C135.293 15.5728 135.475 15.3356 135.585 15.0802C135.712 14.8065 135.776 14.5329 135.776 14.2592C135.776 13.8396 135.667 13.493 135.448 13.2193C135.247 12.9457 134.946 12.7176 134.545 12.5352C134.162 12.3345 133.696 12.1612 133.149 12.0152C132.62 11.851 132.027 11.6777 131.37 11.4953C130.64 11.3128 129.938 11.0939 129.263 10.8385C128.606 10.5648 128.022 10.2273 127.512 9.82593C127.001 9.40632 126.59 8.90461 126.28 8.3208C125.988 7.71875 125.842 6.99812 125.842 6.15889C125.842 5.33792 125.997 4.58079 126.308 3.88752C126.618 3.19425 127.046 2.60132 127.594 2.10873C128.159 1.5979 128.834 1.20566 129.619 0.931997C130.422 0.640094 131.306 0.494142 132.273 0.494142C133.423 0.475898 134.572 0.585362 135.721 0.822534C136.871 1.0597 137.984 1.53405 139.06 2.24556L137.418 5.25582C136.542 4.72674 135.712 4.36186 134.928 4.16118C134.143 3.9605 133.368 3.86015 132.602 3.86015C132.237 3.86015 131.872 3.90576 131.507 3.99698C131.16 4.0882 130.841 4.22503 130.549 4.40747C130.276 4.57167 130.048 4.79972 129.865 5.09162C129.701 5.36528 129.619 5.69367 129.619 6.0768C129.619 6.45992 129.71 6.78831 129.892 7.06197C130.093 7.31739 130.376 7.54544 130.741 7.74612C131.106 7.92856 131.544 8.09275 132.054 8.23871C132.583 8.38466 133.176 8.53061 133.833 8.67656C135.822 9.11442 137.309 9.78032 138.294 10.6743C139.279 11.5682 139.772 12.7541 139.772 14.2318Z" fill="#F82179"/>
<path d="M114.023 14.0943V11.002H122.972V14.0943H114.023Z" fill="#F82179"/>
<path d="M106.479 0.822266C107.428 0.822266 108.24 1.00471 108.915 1.36958C109.608 1.71622 110.174 2.17232 110.612 2.73788C111.068 3.30345 111.396 3.94198 111.597 4.6535C111.816 5.34677 111.925 6.03092 111.925 6.70594C111.925 7.19853 111.852 7.70936 111.706 8.23844C111.579 8.74927 111.378 9.24186 111.104 9.7162C110.849 10.1723 110.53 10.601 110.147 11.0024C109.763 11.3855 109.326 11.7048 108.833 11.9602L112.226 19.6774H108.176C108.103 19.4767 107.985 19.1939 107.82 18.8291C107.674 18.4459 107.501 18.0263 107.3 17.5702C107.118 17.1141 106.917 16.6398 106.698 16.1472C106.498 15.6364 106.297 15.1529 106.096 14.6968C105.914 14.2407 105.741 13.8302 105.576 13.4653C105.43 13.0822 105.312 12.7903 105.221 12.5896H101.827V19.6774H98.0781V0.822266H106.479ZM101.827 9.19625H105.631C106.507 9.19625 107.164 8.9682 107.601 8.5121C108.039 8.03775 108.258 7.4357 108.258 6.70594C108.258 5.97619 108.03 5.37414 107.574 4.89979C107.136 4.42545 106.489 4.18828 105.631 4.18828H101.827V9.19625Z" fill="#F82179"/>
<path d="M90.9978 15.7914H84.43L83.1986 19.6774H79.2031L85.8257 0.822266H89.6569L96.2247 19.6774H92.1472L90.9978 15.7914ZM85.4426 12.6444H89.9853L89.2464 10.2362L87.7687 5.25555H87.6592L86.2088 10.1541L85.4426 12.6444Z" fill="#F82179"/>
<path d="M77.8339 14.0674C77.8339 14.8336 77.7153 15.5543 77.4781 16.2293C77.2409 16.9043 76.8943 17.4973 76.4382 18.0081C75.9821 18.5189 75.4165 18.9294 74.7415 19.2395C74.0665 19.5315 73.282 19.6774 72.388 19.6774H63.5488V0.822266H72.0323C72.981 0.822266 73.7928 0.959095 74.4678 1.23275C75.1611 1.50641 75.7267 1.88042 76.1645 2.35476C76.6206 2.8291 76.9581 3.37642 77.1771 3.99672C77.396 4.61701 77.5055 5.26467 77.5055 5.9397C77.5055 6.63297 77.3139 7.34448 76.9308 8.07424C76.5659 8.804 75.9821 9.36956 75.1794 9.77093C75.6355 9.98986 76.0277 10.2726 76.3561 10.6193C76.6845 10.9477 76.9581 11.3125 77.1771 11.7139C77.396 12.097 77.5602 12.4984 77.6697 12.918C77.7791 13.3194 77.8339 13.7025 77.8339 14.0674ZM73.6469 6.29545C73.6469 5.60218 73.4371 5.07311 73.0174 4.70823C72.6161 4.34335 71.9775 4.16091 71.1018 4.16091H67.298V8.29317H71.1566C71.9411 8.29317 72.5522 8.11073 72.9901 7.74585C73.4279 7.38097 73.6469 6.89751 73.6469 6.29545ZM73.8658 13.9579C73.8658 13.2282 73.6377 12.6444 73.1816 12.2065C72.7255 11.7504 72.0961 11.5224 71.2934 11.5224H67.298V16.3388H71.3208C72.16 16.3388 72.7894 16.129 73.209 15.7093C73.6469 15.2715 73.8658 14.6877 73.8658 13.9579Z" fill="#F82179"/>
<path d="M44.573 1.60614C39.8223 3.52495 36.2145 9.88868 35.842 10.3882C35.8017 10.4417 35.7539 10.5044 35.7136 10.5586C35.7054 10.5571 35.7024 10.5525 35.6927 10.5509C34.8328 10.4257 28.4294 10.2042 28.4294 10.2042C25.2314 10.2042 22.07 10.4257 21.2086 10.5509C21.1989 10.5517 21.1966 10.5563 21.1877 10.5586C21.1474 10.5044 21.0996 10.4417 21.06 10.3882C20.6883 9.88945 17.0805 3.52572 12.3283 1.60614C6.74679 -0.65031 0 1.18907 0 1.18907C0 1.18907 4.86563 1.13865 7.09391 5.51787C8.77277 8.81393 6.95954 11.2835 6.95954 11.2835C6.95954 11.2835 9.2983 10.402 12.3268 12.8127C14.3386 14.4161 15.4136 19.0863 15.4136 19.0863C15.4136 19.0863 18.8892 18.2453 20.645 19.0176C24.7544 20.8203 27.0976 23.4724 27.9957 24.6556C27.9613 27.268 27.8113 29.9179 27.6052 30.2517C26.8162 31.5258 25.5263 31.5755 24.738 31.7794C23.9519 31.9795 23.2928 32.0605 23.6533 32.46C24.1878 33.0505 28.3189 32.9985 28.451 32.9955C28.5824 32.9985 32.7135 33.0505 33.2472 32.46C33.6085 32.062 32.9509 31.9795 32.1641 31.7794C31.375 31.5755 30.0851 31.5258 29.2968 30.2517C29.0915 29.9171 28.9392 27.268 28.9079 24.6556C29.8044 23.4724 32.1484 20.8203 36.2563 19.0176C38.0121 18.2453 41.4892 19.0863 41.4892 19.0863C41.4892 19.0863 42.5627 14.4146 44.5737 12.8127C47.6045 10.402 49.9425 11.2835 49.9425 11.2835C49.9425 11.2835 48.1308 8.81393 49.8081 5.51787C52.0357 1.13865 56.902 1.18907 56.902 1.18907C56.902 1.18907 50.1538 -0.65031 44.573 1.60614ZM25.4277 18.6723C24.5752 17.7633 22.4545 15.2136 22.4545 15.2136C22.4545 15.2136 24.4021 16.5984 25.7637 18.3515C27.1812 20.1817 27.9986 22.9461 27.9986 22.9736C27.9986 23.0011 26.178 19.4713 25.4277 18.6723ZM31.8229 18.214C31.0734 19.0122 29.249 22.5451 29.249 22.5153C29.249 22.487 30.0672 19.7242 31.487 17.8932C32.8479 16.1378 34.7954 14.7552 34.7954 14.7552C34.7954 14.7552 32.6754 17.3012 31.8229 18.214Z" fill="url(#paint0_linear_415_665)"/>
<path d="M168.829 34.443H168.332L168.194 33.2741H164.733L164.595 34.443H164.098V32.6298H164.641C164.69 32.5623 164.754 32.4426 164.834 32.2708C164.914 32.0928 164.99 31.8474 165.064 31.5344C165.144 31.2154 165.211 30.8226 165.267 30.3563C165.328 29.8838 165.365 29.3223 165.377 28.6719H168.157V32.6298H168.829V34.443ZM167.42 32.6298V29.3162H166.04C166.028 29.5739 166.006 29.8562 165.975 30.163C165.945 30.4637 165.902 30.7674 165.846 31.0742C165.797 31.3749 165.733 31.6602 165.653 31.9302C165.573 32.2002 165.481 32.4334 165.377 32.6298H167.42Z" fill="#F82179"/>
<path d="M161.953 31.6521L162.211 32.5358H162.257L162.46 31.6429L163.352 28.6699H164.098L162.736 32.8027C162.631 33.1034 162.527 33.3948 162.423 33.6771C162.325 33.9594 162.214 34.211 162.091 34.4319C161.969 34.6528 161.831 34.8277 161.677 34.9565C161.524 35.0915 161.346 35.159 161.143 35.159C160.922 35.159 160.741 35.1283 160.6 35.067L160.729 34.4319C160.809 34.4625 160.886 34.4779 160.959 34.4779C161.131 34.4779 161.297 34.3858 161.456 34.2018C161.616 34.0238 161.748 33.7139 161.852 33.2721L160.002 28.6699H160.849L161.953 31.6521Z" fill="#F82179"/>
<path d="M156.523 33.31C156.419 33.3468 156.308 33.3683 156.192 33.3744C156.081 33.3805 155.98 33.3836 155.888 33.3836C155.33 33.3836 154.9 33.1872 154.599 32.7945C154.299 32.4018 154.148 31.7943 154.148 30.972C154.148 30.1866 154.314 29.5945 154.645 29.1956C154.977 28.7967 155.455 28.5973 156.081 28.5973C156.253 28.5973 156.4 28.6096 156.523 28.6341V26.8301H157.223V28.6433C157.333 28.6249 157.431 28.6127 157.517 28.6065C157.603 28.6004 157.686 28.5973 157.766 28.5973C158.373 28.5973 158.83 28.7753 159.137 29.1312C159.444 29.4809 159.597 30.0639 159.597 30.88C159.597 31.2666 159.554 31.6164 159.469 31.9293C159.389 32.2361 159.269 32.4969 159.11 32.7117C158.95 32.9264 158.754 33.0921 158.521 33.2087C158.293 33.3253 158.03 33.3836 157.729 33.3836C157.674 33.3836 157.591 33.3775 157.48 33.3652C157.376 33.359 157.29 33.3437 157.223 33.3192V35.114H156.523V33.31ZM157.628 29.2048C157.554 29.2048 157.487 29.2079 157.425 29.214C157.37 29.214 157.299 29.2263 157.213 29.2508V32.7485C157.275 32.7608 157.342 32.77 157.416 32.7761C157.496 32.7761 157.582 32.7761 157.674 32.7761C158.066 32.7761 158.361 32.6135 158.557 32.2883C158.76 31.9631 158.861 31.4936 158.861 30.88C158.861 30.3584 158.769 29.9504 158.585 29.6558C158.407 29.3551 158.088 29.2048 157.628 29.2048ZM156.072 32.7761C156.146 32.7761 156.219 32.773 156.293 32.7669C156.367 32.7608 156.446 32.7485 156.532 32.7301V29.2416C156.459 29.2294 156.388 29.2201 156.321 29.214C156.259 29.2079 156.183 29.2048 156.091 29.2048C155.71 29.2048 155.413 29.349 155.198 29.6374C154.989 29.9197 154.885 30.3646 154.885 30.972C154.885 31.2298 154.906 31.4691 154.949 31.69C154.998 31.9109 155.072 32.1042 155.17 32.2699C155.268 32.4294 155.391 32.5552 155.538 32.6472C155.692 32.7332 155.87 32.7761 156.072 32.7761Z" fill="#F82179"/>
<path d="M151.553 29.3142H150.118V33.2721H149.381V29.3142H147.945V28.6699H151.553V29.3142Z" fill="#F82179"/>
<path d="M146.473 30.5476L146.501 29.9769H146.473L146.096 30.566L144.025 33.2721H143.602V28.6699H144.338V31.4773L144.31 32.0203H144.347L144.706 31.4496L146.777 28.6699H147.21V33.2721H146.473V30.5476Z" fill="#F82179"/>
<path d="M138.621 28.671H139.127L139.265 29.2233H139.302C139.443 29.0085 139.624 28.8459 139.845 28.7354C140.072 28.6188 140.33 28.5605 140.618 28.5605C141.232 28.5605 141.689 28.7416 141.99 29.1036C142.291 29.4656 142.441 30.0578 142.441 30.88C142.441 31.2666 142.389 31.6164 142.284 31.9293C142.186 32.2362 142.045 32.497 141.861 32.7117C141.677 32.9265 141.453 33.0922 141.189 33.2088C140.931 33.3253 140.643 33.3836 140.324 33.3836C140.097 33.3836 139.916 33.3683 139.781 33.3376C139.652 33.3131 139.511 33.2671 139.357 33.1996V35.1141H138.621V28.671ZM140.48 29.2049C140.167 29.2049 139.919 29.2877 139.735 29.4534C139.557 29.6129 139.431 29.8584 139.357 30.1897V32.4724C139.468 32.5583 139.594 32.6258 139.735 32.6749C139.876 32.7179 140.063 32.7393 140.296 32.7393C140.72 32.7393 141.054 32.5829 141.3 32.2699C141.551 31.9508 141.677 31.4845 141.677 30.8708C141.677 30.6193 141.655 30.3922 141.613 30.1897C141.57 29.9811 141.499 29.8062 141.401 29.6651C141.309 29.5178 141.186 29.4043 141.033 29.3245C140.885 29.2447 140.701 29.2049 140.48 29.2049Z" fill="#F82179"/>
<path d="M137.889 29.3142H136.453V33.2721H135.717V29.3142H134.281V28.6699H137.889V29.3142Z" fill="#F82179"/>
<path d="M134.094 32.9694C133.91 33.1044 133.692 33.2057 133.44 33.2732C133.189 33.3468 132.925 33.3836 132.649 33.3836C132.293 33.3836 131.992 33.3284 131.747 33.218C131.501 33.1014 131.299 32.9388 131.139 32.7301C130.986 32.5154 130.872 32.2607 130.799 31.9662C130.731 31.6655 130.697 31.3341 130.697 30.9721C130.697 30.1928 130.869 29.5976 131.213 29.1864C131.556 28.7692 132.05 28.5605 132.695 28.5605C132.989 28.5605 133.238 28.5851 133.44 28.6342C133.649 28.6771 133.836 28.7416 134.002 28.8275L133.79 29.4626C133.649 29.3828 133.492 29.3214 133.321 29.2785C133.149 29.2294 132.965 29.2049 132.768 29.2049C131.897 29.2049 131.461 29.7939 131.461 30.9721C131.461 31.2053 131.483 31.4292 131.526 31.644C131.575 31.8526 131.651 32.0398 131.756 32.2055C131.866 32.365 132.007 32.4939 132.179 32.5921C132.357 32.6902 132.575 32.7393 132.833 32.7393C133.054 32.7393 133.25 32.7056 133.422 32.6381C133.6 32.5706 133.744 32.4939 133.854 32.408L134.094 32.9694Z" fill="#F82179"/>
<path d="M126.348 30.5496L126.376 29.9789H126.348L125.971 30.568L123.9 33.2741H123.477V28.6719H124.213V31.4792L124.185 32.0223H124.222L124.581 31.4516L126.652 28.6719H127.085V33.2741H126.348V30.5496Z" fill="#F82179"/>
<path d="M116.043 28.671H116.549L116.687 29.2233H116.724C116.865 29.0085 117.046 28.8459 117.267 28.7354C117.494 28.6188 117.752 28.5605 118.04 28.5605C118.654 28.5605 119.111 28.7416 119.412 29.1036C119.712 29.4656 119.863 30.0578 119.863 30.88C119.863 31.2666 119.811 31.6164 119.706 31.9293C119.608 32.2362 119.467 32.497 119.283 32.7117C119.099 32.9265 118.875 33.0922 118.611 33.2088C118.353 33.3253 118.065 33.3836 117.746 33.3836C117.519 33.3836 117.338 33.3683 117.203 33.3376C117.074 33.3131 116.933 33.2671 116.779 33.1996V35.1141H116.043V28.671ZM117.902 29.2049C117.589 29.2049 117.341 29.2877 117.157 29.4534C116.979 29.6129 116.853 29.8584 116.779 30.1897V32.4724C116.89 32.5583 117.016 32.6258 117.157 32.6749C117.298 32.7179 117.485 32.7393 117.718 32.7393C118.142 32.7393 118.476 32.5829 118.721 32.2699C118.973 31.9508 119.099 31.4845 119.099 30.8708C119.099 30.6193 119.077 30.3922 119.034 30.1897C118.991 29.9811 118.921 29.8062 118.823 29.6651C118.731 29.5178 118.608 29.4043 118.455 29.3245C118.307 29.2447 118.123 29.2049 117.902 29.2049Z" fill="#F82179"/>
<path d="M111.403 29.0119C111.636 28.8707 111.906 28.7664 112.213 28.6989C112.526 28.6314 112.851 28.5977 113.189 28.5977C113.508 28.5977 113.762 28.6406 113.953 28.7265C114.149 28.8124 114.296 28.9259 114.395 29.0671C114.499 29.2021 114.566 29.3524 114.597 29.5181C114.634 29.6838 114.652 29.8495 114.652 30.0151C114.652 30.3833 114.643 30.7423 114.625 31.092C114.606 31.4418 114.597 31.7732 114.597 32.0861C114.597 32.3132 114.606 32.5279 114.625 32.7304C114.643 32.9329 114.677 33.1201 114.726 33.2919H114.183L113.99 32.6476H113.943C113.888 32.7335 113.818 32.8194 113.732 32.9053C113.652 32.9851 113.554 33.0587 113.437 33.1262C113.321 33.1876 113.186 33.2397 113.032 33.2827C112.879 33.3256 112.704 33.3471 112.508 33.3471C112.311 33.3471 112.127 33.3164 111.955 33.2551C111.79 33.1937 111.645 33.1078 111.523 32.9973C111.4 32.8808 111.302 32.7427 111.228 32.5832C111.161 32.4236 111.127 32.2426 111.127 32.0401C111.127 31.7701 111.182 31.5461 111.293 31.3682C111.403 31.1841 111.556 31.0399 111.753 30.9356C111.955 30.8251 112.195 30.7484 112.471 30.7055C112.753 30.6564 113.063 30.6318 113.4 30.6318C113.486 30.6318 113.569 30.6318 113.649 30.6318C113.735 30.6318 113.821 30.638 113.907 30.6502C113.925 30.4661 113.934 30.3005 113.934 30.1532C113.934 29.8157 113.867 29.5795 113.732 29.4445C113.597 29.3095 113.351 29.242 112.995 29.242C112.891 29.242 112.778 29.2512 112.655 29.2696C112.538 29.2818 112.416 29.3033 112.287 29.334C112.164 29.3586 112.044 29.3923 111.928 29.4353C111.817 29.4721 111.719 29.515 111.633 29.5641L111.403 29.0119ZM112.71 32.7028C112.882 32.7028 113.035 32.6813 113.17 32.6384C113.305 32.5893 113.422 32.531 113.52 32.4635C113.618 32.3899 113.698 32.3101 113.759 32.2242C113.827 32.1383 113.876 32.0554 113.907 31.9757V31.2117C113.821 31.2056 113.732 31.2025 113.64 31.2025C113.554 31.1964 113.468 31.1933 113.382 31.1933C113.192 31.1933 113.005 31.2056 112.821 31.2301C112.643 31.2485 112.483 31.2884 112.342 31.3498C112.207 31.405 112.096 31.4848 112.011 31.5891C111.931 31.6873 111.891 31.8131 111.891 31.9665C111.891 32.1812 111.968 32.3592 112.121 32.5003C112.274 32.6353 112.471 32.7028 112.71 32.7028Z" fill="#F82179"/>
<path d="M106.966 29.4898C107.169 29.1952 107.393 28.9897 107.638 28.8731C107.884 28.7504 108.19 28.689 108.559 28.689C109.123 28.689 109.556 28.8731 109.856 29.2413C110.163 29.6094 110.317 30.1525 110.317 30.8704C110.317 31.6988 110.139 32.3247 109.783 32.7481C109.433 33.1715 108.942 33.3832 108.31 33.3832C107.635 33.3832 107.129 33.1501 106.791 32.6837C106.454 32.2173 106.285 31.4841 106.285 30.4839C106.285 29.9561 106.31 29.5051 106.359 29.1308C106.414 28.7565 106.491 28.4405 106.589 28.1828C106.693 27.925 106.816 27.7195 106.957 27.5661C107.104 27.4127 107.267 27.293 107.445 27.2071C107.629 27.1151 107.828 27.0506 108.043 27.0138C108.258 26.977 108.488 26.9463 108.734 26.9218C109.053 26.8911 109.301 26.8573 109.479 26.8205C109.663 26.7776 109.81 26.7039 109.921 26.5996L110.004 27.2623C109.942 27.3176 109.875 27.3636 109.801 27.4004C109.728 27.4372 109.639 27.4679 109.534 27.4924C109.43 27.517 109.304 27.5385 109.157 27.5569C109.016 27.5753 108.85 27.5906 108.66 27.6029C108.396 27.6213 108.163 27.655 107.96 27.7041C107.764 27.7471 107.592 27.8361 107.445 27.9711C107.304 28.0999 107.19 28.2871 107.104 28.5325C107.025 28.7718 106.969 29.0909 106.939 29.4898H106.966ZM107.049 30.9809C107.049 31.2141 107.074 31.438 107.123 31.6528C107.172 31.8676 107.245 32.0578 107.344 32.2235C107.448 32.383 107.58 32.5088 107.739 32.6009C107.899 32.6929 108.086 32.7389 108.301 32.7389C108.724 32.7389 109.037 32.5886 109.24 32.2879C109.448 31.9811 109.553 31.5301 109.553 30.9349C109.553 30.7017 109.531 30.4869 109.488 30.2906C109.445 30.0942 109.378 29.9255 109.286 29.7843C109.194 29.6371 109.077 29.5266 108.936 29.453C108.795 29.3732 108.626 29.3333 108.43 29.3333C107.951 29.3272 107.601 29.4683 107.38 29.7567C107.16 30.039 107.049 30.447 107.049 30.9809Z" fill="#F82179"/>
<path d="M101.934 30.5495L101.962 29.9788H101.934L101.557 30.5679L99.4859 33.274H99.0625V28.6718H99.7989V31.4791L99.7712 32.0222H99.8081L100.167 31.4515L102.238 28.6718H102.671V33.274H101.934V30.5495ZM100.121 26.8125C100.182 27.0948 100.287 27.2911 100.434 27.4016C100.587 27.512 100.762 27.5673 100.959 27.5673C101.155 27.5673 101.33 27.509 101.483 27.3924C101.637 27.2758 101.741 27.0856 101.796 26.8217L102.348 26.9966C102.293 27.3525 102.134 27.6256 101.87 27.8158C101.612 28.006 101.302 28.1011 100.94 28.1011C100.775 28.1011 100.609 28.0796 100.443 28.0367C100.284 27.9937 100.139 27.9293 100.011 27.8434C99.8817 27.7575 99.7712 27.647 99.6792 27.512C99.5872 27.377 99.5258 27.2175 99.4951 27.0334L100.121 26.8125Z" fill="#F82179"/>
<path d="M93.8711 30.9721C93.8711 30.1928 94.0429 29.5976 94.3865 29.1864C94.7363 28.7692 95.2364 28.5605 95.8869 28.5605C96.2305 28.5605 96.5281 28.6188 96.7797 28.7354C97.0374 28.8459 97.2491 29.0085 97.4148 29.2233C97.5805 29.4319 97.7032 29.6865 97.783 29.9872C97.8627 30.2818 97.9026 30.6101 97.9026 30.9721C97.9026 31.7514 97.7277 32.3497 97.378 32.7669C97.0343 33.1781 96.5373 33.3836 95.8869 33.3836C95.5432 33.3836 95.2425 33.3284 94.9848 33.218C94.7332 33.1014 94.5246 32.9388 94.3589 32.7301C94.1932 32.5154 94.0705 32.2607 93.9908 31.9662C93.911 31.6655 93.8711 31.3341 93.8711 30.9721ZM94.6351 30.9721C94.6351 31.2053 94.6565 31.4292 94.6995 31.644C94.7486 31.8588 94.8222 32.0459 94.9204 32.2055C95.0186 32.365 95.1474 32.4939 95.307 32.5921C95.4665 32.6902 95.6598 32.7393 95.8869 32.7393C96.7214 32.7455 97.1386 32.1564 97.1386 30.9721C97.1386 30.7328 97.1141 30.5057 97.065 30.291C97.0221 30.0762 96.9515 29.889 96.8533 29.7295C96.7551 29.57 96.6263 29.4442 96.4667 29.3521C96.3072 29.2539 96.1139 29.2049 95.8869 29.2049C95.0523 29.1987 94.6351 29.7878 94.6351 30.9721Z" fill="#F82179"/>
<path d="M91.9728 31.2379H89.8926V33.2721H89.1562V28.6699H89.8926V30.5936H91.9728V28.6699H92.7091V33.2721H91.9728V31.2379Z" fill="#F82179"/>
<path d="M88.2467 34.4411H87.7496L87.6116 33.2721H84.1507L84.0127 34.4411H83.5156V32.6278H84.0587C84.1078 32.5603 84.1722 32.4406 84.252 32.2688C84.3317 32.0909 84.4084 31.8454 84.4821 31.5325C84.5619 31.2134 84.6294 30.8207 84.6846 30.3543C84.7459 29.8818 84.7828 29.3204 84.795 28.6699H87.5748V32.6278H88.2467V34.4411ZM86.8384 32.6278V29.3142H85.4577C85.4455 29.572 85.424 29.8542 85.3933 30.161C85.3626 30.4617 85.3197 30.7655 85.2645 31.0723C85.2154 31.3729 85.1509 31.6583 85.0712 31.9283C84.9914 32.1983 84.8993 32.4314 84.795 32.6278H86.8384Z" fill="#F82179"/>
<path d="M80.5566 31.2195V30.6212H81.2009C81.3114 30.6212 81.4188 30.6028 81.5231 30.566C81.6336 30.5292 81.7317 30.4801 81.8176 30.4187C81.9035 30.3512 81.971 30.2745 82.0201 30.1886C82.0754 30.0966 82.103 30.0015 82.103 29.9033C82.103 29.664 82.0201 29.4952 81.8545 29.397C81.6888 29.2989 81.4403 29.2498 81.1089 29.2498C80.8696 29.2498 80.6487 29.2866 80.4462 29.3602C80.2498 29.4339 80.0964 29.5044 79.986 29.5719L79.7743 29.0013C79.9584 28.8969 80.1731 28.8049 80.4186 28.7251C80.6702 28.6454 80.9678 28.6055 81.3114 28.6055C82.33 28.6055 82.8393 28.9828 82.8393 29.7376C82.8393 29.9524 82.7688 30.1641 82.6276 30.3727C82.4926 30.5752 82.2963 30.7194 82.0385 30.8053V30.8421C82.4006 30.9096 82.6522 31.0385 82.7933 31.2287C82.9406 31.4189 83.0142 31.6705 83.0142 31.9835C83.0142 32.1798 82.9743 32.3609 82.8946 32.5265C82.8148 32.6922 82.6951 32.8364 82.5356 32.9591C82.376 33.0819 82.1735 33.18 81.9281 33.2537C81.6888 33.3212 81.4096 33.3549 81.0905 33.3549C80.7775 33.3549 80.5168 33.3273 80.3081 33.2721C80.1056 33.2169 79.9215 33.1494 79.7559 33.0696L79.9676 32.4621C80.1087 32.5419 80.2774 32.6032 80.4738 32.6462C80.6763 32.6891 80.8941 32.7106 81.1273 32.7106C81.5016 32.7106 81.787 32.6462 81.9833 32.5173C82.1797 32.3885 82.2779 32.1921 82.2779 31.9282C82.2779 31.7073 82.1858 31.5355 82.0017 31.4128C81.8176 31.2839 81.5139 31.2195 81.0905 31.2195H80.5566Z" fill="#F82179"/>
<path d="M78.8009 32.905C78.6168 33.0523 78.3836 33.1689 78.1014 33.2548C77.8253 33.3407 77.5307 33.3836 77.2178 33.3836C76.868 33.3836 76.5643 33.3284 76.3065 33.218C76.0488 33.1014 75.8371 32.9388 75.6714 32.7301C75.5057 32.5154 75.383 32.2607 75.3033 31.9662C75.2235 31.6716 75.1836 31.3403 75.1836 30.9721C75.1836 30.1867 75.3585 29.5884 75.7082 29.1772C76.058 28.7661 76.5581 28.5605 77.2086 28.5605C77.4172 28.5605 77.6258 28.5851 77.8345 28.6342C78.0431 28.6771 78.2302 28.763 78.3959 28.8919C78.5616 29.0208 78.6966 29.2049 78.8009 29.4442C78.9052 29.6773 78.9574 29.9872 78.9574 30.3738C78.9574 30.5763 78.939 30.8003 78.9022 31.0457H75.9476C75.9476 31.3157 75.9752 31.555 76.0304 31.7637C76.0856 31.9723 76.1715 32.1503 76.2881 32.2975C76.4047 32.4387 76.555 32.5491 76.7391 32.6289C76.9294 32.7025 77.1595 32.7393 77.4295 32.7393C77.6381 32.7393 77.8467 32.7025 78.0554 32.6289C78.264 32.5552 78.4205 32.4693 78.5248 32.3712L78.8009 32.905ZM77.2178 29.2049C76.8557 29.2049 76.5642 29.3 76.3433 29.4902C76.1286 29.6804 75.9997 30.0056 75.9568 30.4659H78.2394C78.2394 29.9995 78.1505 29.6743 77.9725 29.4902C77.7946 29.3 77.543 29.2049 77.2178 29.2049Z" fill="#F82179"/>
<path d="M70.1016 32.6278C70.3286 32.6646 70.5465 32.683 70.7551 32.683C71.1417 32.683 71.4117 32.6094 71.5651 32.4621C71.7185 32.3087 71.7952 32.0939 71.7952 31.8178C71.7952 31.5724 71.7185 31.3699 71.5651 31.2103C71.4178 31.0508 71.157 30.971 70.7827 30.971C70.6784 30.971 70.5649 30.9741 70.4421 30.9802C70.3194 30.9864 70.2059 31.0048 70.1016 31.0354V32.6278ZM70.1016 30.428C70.2489 30.4034 70.39 30.3881 70.525 30.3819C70.66 30.3697 70.7888 30.3635 70.9116 30.3635C71.2245 30.3635 71.4853 30.4003 71.6939 30.474C71.9087 30.5415 72.0805 30.6366 72.2094 30.7593C72.3382 30.882 72.4272 31.0293 72.4763 31.2011C72.5315 31.3668 72.5592 31.5448 72.5592 31.735C72.5592 32.2934 72.4027 32.6984 72.0897 32.95C71.7829 33.2015 71.2828 33.3273 70.5894 33.3273C70.1967 33.3273 69.7886 33.3089 69.3652 33.2721V28.6699H70.1016V30.428ZM73.2863 28.6699H74.0226V33.2721H73.2863V28.6699Z" fill="#F82179"/>
<path d="M67.9467 28.3022C67.9467 28.4556 67.9222 28.6121 67.8731 28.7716C67.824 28.9312 67.7504 29.0815 67.6522 29.2226C67.554 29.3576 67.4282 29.4773 67.2748 29.5816C67.1214 29.6859 66.9404 29.7657 66.7318 29.8209V29.8577C66.9159 29.8884 67.0907 29.9406 67.2564 30.0142C67.4282 30.0878 67.5786 30.1891 67.7074 30.318C67.8363 30.4468 67.9406 30.6033 68.0204 30.7874C68.1002 30.9715 68.14 31.1893 68.14 31.4409C68.14 31.7722 68.0695 32.0606 67.9283 32.3061C67.7933 32.5454 67.6123 32.7418 67.3853 32.8952C67.1644 33.0486 66.9097 33.1621 66.6213 33.2357C66.3329 33.3094 66.0384 33.3462 65.7377 33.3462C65.6334 33.3462 65.5107 33.3462 65.3695 33.3462C65.2284 33.3462 65.0811 33.3401 64.9277 33.3278C64.7743 33.3216 64.6209 33.3094 64.4675 33.291C64.3141 33.2787 64.1791 33.2572 64.0625 33.2265V26.8847C64.2895 26.8479 64.5534 26.8172 64.8541 26.7927C65.1548 26.7681 65.483 26.7559 65.8389 26.7559C66.0783 26.7559 66.3206 26.7773 66.5661 26.8203C66.8177 26.8571 67.0447 26.9338 67.2472 27.0504C67.4497 27.1609 67.6154 27.3173 67.7443 27.5198C67.8792 27.7223 67.9467 27.9831 67.9467 28.3022ZM65.8113 32.6835C66.0077 32.6835 66.1979 32.662 66.382 32.619C66.5661 32.57 66.7287 32.4963 66.8698 32.3981C67.011 32.2938 67.1214 32.168 67.2012 32.0208C67.2871 31.8735 67.3301 31.6986 67.3301 31.4961C67.3301 31.2445 67.2779 31.042 67.1736 30.8886C67.0754 30.7352 66.9435 30.6156 66.7778 30.5297C66.6182 30.4437 66.4372 30.3855 66.2347 30.3548C66.0322 30.3241 65.8297 30.3087 65.6272 30.3087H64.8265V32.619C64.8694 32.6313 64.9308 32.6405 65.0106 32.6467C65.0903 32.6528 65.1762 32.6589 65.2683 32.6651C65.3603 32.6712 65.4554 32.6773 65.5536 32.6835C65.6518 32.6835 65.7377 32.6835 65.8113 32.6835ZM65.3051 29.6644C65.4094 29.6644 65.5352 29.6614 65.6825 29.6552C65.8297 29.6491 65.9525 29.6399 66.0506 29.6276C66.1979 29.5785 66.336 29.5202 66.4648 29.4527C66.5937 29.3791 66.7072 29.2963 66.8054 29.2042C66.9097 29.106 66.9895 28.9956 67.0447 28.8729C67.1061 28.744 67.1368 28.6059 67.1368 28.4587C67.1368 28.2562 67.0969 28.0905 67.0171 27.9616C66.9435 27.8266 66.8422 27.7193 66.7134 27.6395C66.5845 27.5597 66.4372 27.5045 66.2716 27.4738C66.1059 27.437 65.9371 27.4186 65.7653 27.4186C65.5628 27.4186 65.3757 27.4247 65.2038 27.437C65.0382 27.4431 64.9124 27.4554 64.8265 27.4738V29.6644H65.3051Z" fill="#F82179"/>
<defs>
<linearGradient id="paint0_linear_415_665" x1="28.4511" y1="32.9981" x2="28.4511" y2="0.482868" gradientUnits="userSpaceOnUse">
<stop stop-color="#F82179"/>
<stop offset="1" stop-color="#DD1C72"/>
</linearGradient>
</defs>
</svg>
