<svg width="33" height="33" viewBox="0 0 33 33" fill="none" xmlns="http://www.w3.org/2000/svg">
<path fill-rule="evenodd" clip-rule="evenodd" d="M28.1707 4.83661C25.055 1.71885 20.9137 0.00104553 16.5058 0C7.40547 0 0.00418305 7.39816 9.39117e-07 16.4922C-0.00104459 19.6089 0.870926 22.643 2.52286 25.2704L2.91598 25.8946L5 28.5L7.4933 30.3433L8.09657 30.7009C10.6288 32.2044 13.5333 32.999 16.4943 33H16.5005C25.5945 33 32.9958 25.6008 32.999 16.5058C33 12.0989 31.2864 7.95438 28.1707 4.83661Z" fill="#F82179"/>
<path fill-rule="evenodd" clip-rule="evenodd" d="M11.5383 8.19503C11.1672 7.36906 10.7761 7.35233 10.4217 7.33769C10.1321 7.32515 9.80171 7.32619 9.47133 7.32619C9.14094 7.32619 8.60354 7.45061 8.14873 7.94724C7.69393 8.44386 6.41211 9.64308 6.41211 12.0833C6.41211 14.5236 8.18951 16.8823 8.4373 17.2127C8.68509 17.5431 11.8687 22.7111 16.9103 24.6997C21.0997 26.3517 21.9528 26.0234 22.8624 25.9408C23.7721 25.8582 25.7972 24.7416 26.2102 23.5831C26.6232 22.4247 26.6232 21.4325 26.4998 21.2254C26.3754 21.0184 26.045 20.8951 25.5495 20.6462C25.0539 20.3974 22.6147 19.1982 22.1599 19.033C21.705 18.8678 21.3747 18.7852 21.0432 19.2818C20.7128 19.7774 19.7625 20.8951 19.4728 21.2254C19.1832 21.5569 18.8936 21.5987 18.398 21.3499C17.9025 21.101 16.3049 20.5783 14.4094 18.8887C12.9352 17.5745 11.9398 15.9508 11.6502 15.4541C11.3606 14.9585 11.6188 14.6898 11.8677 14.4421C12.0904 14.2194 12.3633 13.8628 12.6121 13.5732C12.8599 13.2836 12.9425 13.0766 13.1077 12.7462C13.2729 12.4148 13.1903 12.1252 13.0659 11.8774C12.9435 11.6285 11.9795 9.17573 11.5383 8.19503Z" fill="white"/>
</svg>
