<svg width="39" height="52" viewBox="0 0 39 52" fill="none" xmlns="http://www.w3.org/2000/svg">
<path d="M15.4636 0.116806C10.8042 0.911625 7.14173 4.04962 5.71745 8.48823C5.15791 10.2017 5.13757 10.5733 5.13757 17.8403V24.5395H4.68994C4.14057 24.5395 3.15375 24.8388 2.57387 25.1898C1.92277 25.5717 1.20046 26.4078 0.834219 27.2026C0.529017 27.8529 0.50867 27.9665 0.50867 29.0297C0.518843 29.9587 0.559537 30.2684 0.742658 30.7329C1.05803 31.5483 1.81087 32.4464 2.5637 32.9006L3.19445 33.2825L2.44162 33.8089C1.57688 34.418 1.00717 35.0992 0.559537 36.0386C0 37.236 0 37.2256 0 44.8022C0 50.9131 0.0203468 51.8111 0.152601 51.8937C0.396763 52.0485 37.5195 52.0279 37.6721 51.873C37.957 51.584 37.7738 51.3672 36.5225 50.4279L35.261 49.4679L35.2508 44.9984C35.2508 40.8385 35.261 40.5288 35.434 40.4772C37.3974 39.8062 38.6691 38.2372 38.9234 36.2037C38.9743 35.7082 39.015 33.7986 38.9946 31.7858C38.9641 28.7716 38.9438 28.2349 38.8115 28.1523C38.7301 28.1007 37.6111 28.0491 36.3089 28.0491H33.9588L33.735 27.4297C33.1755 25.8814 31.7614 24.7872 30.0421 24.5704L29.4011 24.4879L29.3401 17.3654C29.2892 10.4598 29.2791 10.2224 29.0654 9.38627C27.8955 4.8754 24.5789 1.48967 20.2451 0.374863C18.7699 0.00325775 16.7861 -0.110287 15.4636 0.116806ZM18.9734 0.952915C21.3947 1.35548 23.5514 2.4703 25.1995 4.17349C26.7866 5.80442 27.6411 7.31148 28.2515 9.5411C28.4652 10.3256 28.4754 10.5321 28.5059 17.6751C28.5364 23.9717 28.5669 25.0246 28.6992 25.1691C28.8009 25.293 29.0858 25.3549 29.6962 25.3859C31.1611 25.4788 32.3006 26.2323 32.8601 27.4607L33.1144 27.9975L31.2222 28.0491C29.7063 28.0904 29.3197 28.1316 29.2485 28.2555C29.1977 28.3381 29.1468 29.3703 29.1468 30.5471V32.6941H25.4844H21.8219V31.2696L21.8321 29.8555L22.4018 29.4942C23.1547 29.0194 24.4162 27.76 24.9655 26.9239C25.9523 25.4478 26.4508 23.9511 26.6136 21.9073C26.7866 19.9254 26.6747 13.99 26.4508 12.9784C26.1558 11.6469 25.5352 10.243 24.7214 9.09724C24.5789 8.90112 24.5891 8.84951 24.9859 8.40565C25.4233 7.88953 25.4539 7.57986 25.0673 7.45599C24.9045 7.40438 24.4874 7.76566 22.9105 9.33466C17.1829 15.0429 12.2996 17.6545 8.90173 16.839C8.54566 16.7564 8.04716 16.5706 7.79283 16.4364C7.26381 16.1268 7.00947 16.1164 6.86705 16.3745C6.71445 16.6738 6.82635 16.8493 7.32485 17.1177L7.76231 17.3551L7.81317 20.1422C7.84369 22.2479 7.90473 23.1047 8.02681 23.5898C8.63722 26.0052 9.95976 27.9975 11.8825 29.36L12.6659 29.9277V31.3109V32.6941L8.98311 32.7148C6.94843 32.7354 4.99514 32.7354 4.63907 32.7251C3.38774 32.6735 2.13641 31.8167 1.58705 30.6297C1.35306 30.1342 1.32254 29.9277 1.32254 29.0297C1.32254 28.0904 1.35306 27.9458 1.61757 27.3988C2.23815 26.1704 3.35722 25.4685 4.86289 25.3653C5.50381 25.3343 5.77849 25.2724 5.84971 25.1588C5.91075 25.0659 5.95144 22.2582 5.95144 18.0777C5.95144 10.594 5.97179 10.243 6.51098 8.65338C8.29132 3.33738 13.5815 0.0755157 18.9734 0.952915ZM24.3246 10.0572C25.0367 11.1617 25.4945 12.3591 25.6878 13.6184C25.7692 14.1345 25.7896 15.7139 25.7692 18.6557C25.7184 23.5279 25.7184 23.5382 24.874 25.3136C23.409 28.4 20.5096 30.2168 17.0608 30.2168C13.2458 30.2168 9.94959 27.5433 8.89155 23.6208C8.70843 22.9602 8.66774 22.4337 8.62704 20.2351L8.57618 17.6441L9.01363 17.7474C9.75629 17.9228 11.5773 17.7783 12.615 17.4687C14.7413 16.839 17.7017 15.0842 20.1942 12.9888C21.0182 12.2972 23.2462 10.2637 23.5921 9.89206C23.7651 9.71658 23.9177 9.57207 23.9584 9.57207C23.9889 9.57207 24.1517 9.78884 24.3246 10.0572ZM38.1808 30.7535L38.1503 32.6425H34.0809H30.0115L29.981 30.7535L29.9607 28.8749H34.0809H38.2011L38.1808 30.7535ZM20.9877 32.6632C20.9165 35.8424 20.9572 35.7495 19.4109 36.6579C18.3325 37.2876 18.2002 37.3392 17.9255 37.236C17.5288 37.1018 16.8065 37.1018 16.5013 37.2463C16.2978 37.3392 16.1248 37.2669 15.1584 36.6992C13.5815 35.7702 13.6425 35.9147 13.6018 32.8696C13.5815 31.5277 13.6018 30.4232 13.6527 30.4232C13.6934 30.4232 14.0902 30.5368 14.5276 30.6813C15.6365 31.0425 17.0404 31.1871 18.1392 31.0529C19.1056 30.929 19.9907 30.7226 20.5198 30.4851C20.7029 30.4026 20.8962 30.3303 20.947 30.3303C20.9877 30.32 21.0081 31.3729 20.9877 32.6632ZM30.8051 35.0373C30.8864 37.205 31.212 38.0411 32.4125 39.1353C32.6973 39.3933 32.9008 39.6101 32.8703 39.6101C32.8397 39.6101 32.5956 39.5069 32.3412 39.3933C31.5986 39.032 30.8254 38.2372 30.449 37.463C30.1234 36.7921 30.1133 36.7302 30.0828 35.1405L30.0421 33.5199H30.388H30.744L30.8051 35.0373ZM5.64624 42.3971V51.1711H3.20462H0.763005V44.6887C0.763005 37.5559 0.783352 37.3495 1.38358 36.2037C2.14659 34.7586 3.79468 33.6438 5.21896 33.6335L5.64624 33.6231V42.3971ZM12.7676 34.3663C12.7676 34.9237 12.8388 35.3057 13.0423 35.8424C13.2966 36.534 13.317 36.6785 13.3679 39.1353C13.4492 42.3971 13.3475 42.2733 15.0566 41.272C16.135 40.6423 16.2978 40.5701 16.5521 40.663L16.837 40.7662V45.979V51.1814L16.4707 51.1505L16.1045 51.1195L13.1135 42.9132C11.4756 38.4024 10.031 34.4592 9.92924 34.1599L9.72577 33.6231H11.2416H12.7676V34.3663ZM24.7417 33.6954C24.7112 33.747 23.2971 37.6076 21.588 42.2939C19.8788 46.9802 18.4444 50.8924 18.4139 50.9853C18.363 51.1092 18.2307 51.1711 17.9967 51.1711H17.6509V45.9687V40.7662L17.9357 40.663C18.1799 40.5804 18.3528 40.6526 19.4312 41.272C21.1505 42.2733 21.0488 42.3971 21.1098 39.1353C21.1505 36.9056 21.181 36.5237 21.3438 36.2244C21.5676 35.8115 21.8219 34.6657 21.8219 34.0567V33.6231H23.3073C24.1211 33.6231 24.7621 33.6541 24.7417 33.6954ZM29.1468 34.5728C29.157 36.0902 29.3096 36.9882 29.7063 37.8347C30.2862 39.0733 31.3544 40.0023 32.738 40.4772C32.9008 40.5288 32.911 40.8178 32.8906 44.9984L32.8601 49.4576L31.7614 50.3144L30.6525 51.1711H29.747H28.8416V42.3971C28.8416 34.6657 28.8619 33.6231 28.9942 33.6231C29.1163 33.6231 29.1468 33.7986 29.1468 34.5728ZM34.437 45.2358V49.8189L35.3221 50.5002L36.197 51.1711H34.0809H31.9648L32.8397 50.5002L33.7248 49.8189V45.2358V40.6423H34.0809H34.437V45.2358Z" fill="#F82179"/>
</svg>
