<svg width="57" height="52" viewBox="0 0 57 52" fill="none" xmlns="http://www.w3.org/2000/svg">
<path d="M15.4636 0.116806C10.8042 0.911627 7.14173 4.04962 5.71745 8.48823C5.15791 10.2017 5.13757 10.5733 5.13757 17.8403V24.5395H4.68994C4.14057 24.5395 3.15375 24.8388 2.57387 25.1898C1.92277 25.5717 1.20046 26.4078 0.834219 27.2026C0.529017 27.8529 0.50867 27.9665 0.50867 29.0297C0.518843 29.9587 0.559537 30.2684 0.742658 30.7329C1.05803 31.5483 1.81087 32.4464 2.5637 32.9006L3.19445 33.2825L2.44162 33.8089C1.57688 34.418 1.00717 35.0992 0.559537 36.0386C0 37.236 0 37.2256 0 44.8022C0 50.9131 0.0203468 51.8111 0.152601 51.8937C0.396763 52.0485 37.5195 52.0279 37.6721 51.873C37.957 51.584 37.7738 51.3672 36.5225 50.4279L35.261 49.4679L35.2508 44.9984C35.2508 40.8385 35.261 40.5288 35.434 40.4772C37.3974 39.8062 38.6691 38.2372 38.9234 36.2037C38.9743 35.7082 39.015 33.7986 38.9946 31.7858C38.9641 28.7716 38.9438 28.2349 38.8115 28.1523C38.7301 28.1007 37.6111 28.0491 36.3089 28.0491H33.9588L33.735 27.4297C33.1755 25.8814 31.7614 24.7872 30.0421 24.5704L29.4011 24.4879L29.3401 17.3654C29.2892 10.4598 29.2791 10.2224 29.0654 9.38627C27.8955 4.8754 24.5789 1.48968 20.2451 0.374863C18.7699 0.00325829 16.7861 -0.110286 15.4636 0.116806ZM18.9734 0.952915C21.3947 1.35549 23.5514 2.4703 25.1995 4.17349C26.7866 5.80442 27.6411 7.31148 28.2515 9.5411C28.4652 10.3256 28.4754 10.5321 28.5059 17.6751C28.5364 23.9717 28.5669 25.0246 28.6992 25.1691C28.8009 25.293 29.0858 25.3549 29.6962 25.3859C31.1611 25.4788 32.3006 26.2323 32.8601 27.4607L33.1144 27.9975L31.2222 28.0491C29.7063 28.0904 29.3197 28.1316 29.2485 28.2555C29.1977 28.3381 29.1468 29.3703 29.1468 30.5471V32.6941H25.4844H21.8219V31.2696L21.8321 29.8555L22.4018 29.4942C23.1547 29.0194 24.4162 27.76 24.9655 26.9239C25.9523 25.4478 26.4508 23.9511 26.6136 21.9073C26.7866 19.9254 26.6747 13.99 26.4508 12.9784C26.1558 11.6469 25.5352 10.243 24.7214 9.09724C24.5789 8.90112 24.5891 8.84951 24.9859 8.40565C25.4233 7.88953 25.4539 7.57986 25.0673 7.45599C24.9045 7.40438 24.4874 7.76566 22.9105 9.33466C17.1829 15.0429 12.2996 17.6545 8.90173 16.839C8.54566 16.7564 8.04716 16.5706 7.79283 16.4364C7.26381 16.1268 7.00947 16.1164 6.86705 16.3745C6.71445 16.6738 6.82635 16.8493 7.32485 17.1177L7.76231 17.3551L7.81317 20.1422C7.84369 22.2479 7.90473 23.1047 8.02681 23.5898C8.63722 26.0052 9.95976 27.9975 11.8825 29.36L12.6659 29.9277V31.3109V32.6941L8.98311 32.7148C6.94843 32.7354 4.99514 32.7354 4.63907 32.7251C3.38774 32.6735 2.13641 31.8167 1.58705 30.6297C1.35306 30.1342 1.32254 29.9277 1.32254 29.0297C1.32254 28.0904 1.35306 27.9458 1.61757 27.3988C2.23815 26.1704 3.35722 25.4685 4.86289 25.3653C5.50381 25.3343 5.77849 25.2724 5.84971 25.1588C5.91075 25.0659 5.95144 22.2582 5.95144 18.0777C5.95144 10.594 5.97179 10.243 6.51098 8.65338C8.29132 3.33737 13.5815 0.075516 18.9734 0.952915ZM24.3246 10.0572C25.0367 11.1617 25.4945 12.3591 25.6878 13.6184C25.7692 14.1345 25.7896 15.7139 25.7692 18.6557C25.7184 23.5279 25.7184 23.5382 24.874 25.3136C23.409 28.4 20.5096 30.2168 17.0608 30.2168C13.2458 30.2168 9.94959 27.5433 8.89155 23.6208C8.70843 22.9602 8.66774 22.4337 8.62704 20.2351L8.57618 17.6441L9.01363 17.7474C9.75629 17.9228 11.5773 17.7783 12.615 17.4687C14.7413 16.839 17.7017 15.0842 20.1942 12.9888C21.0182 12.2972 23.2462 10.2637 23.5921 9.89206C23.7651 9.71658 23.9177 9.57207 23.9584 9.57207C23.9889 9.57207 24.1517 9.78884 24.3246 10.0572ZM38.1808 30.7535L38.1503 32.6425H34.0809H30.0115L29.981 30.7535L29.9607 28.8749H34.0809H38.2011L38.1808 30.7535ZM20.9877 32.6632C20.9165 35.8424 20.9572 35.7495 19.4109 36.6579C18.3325 37.2876 18.2002 37.3392 17.9255 37.236C17.5288 37.1018 16.8065 37.1018 16.5013 37.2463C16.2978 37.3392 16.1248 37.2669 15.1584 36.6992C13.5815 35.7702 13.6425 35.9147 13.6018 32.8696C13.5815 31.5277 13.6018 30.4232 13.6527 30.4232C13.6934 30.4232 14.0902 30.5368 14.5276 30.6813C15.6365 31.0425 17.0404 31.1871 18.1392 31.0529C19.1056 30.929 19.9907 30.7226 20.5198 30.4851C20.7029 30.4026 20.8962 30.3303 20.947 30.3303C20.9877 30.32 21.0081 31.3729 20.9877 32.6632ZM30.8051 35.0373C30.8864 37.205 31.212 38.0411 32.4125 39.1353C32.6973 39.3933 32.9008 39.6101 32.8703 39.6101C32.8397 39.6101 32.5956 39.5069 32.3412 39.3933C31.5986 39.032 30.8254 38.2372 30.449 37.463C30.1234 36.7921 30.1133 36.7302 30.0828 35.1405L30.0421 33.5199H30.388H30.744L30.8051 35.0373ZM5.64624 42.3971V51.1711H3.20462H0.763005V44.6887C0.763005 37.5559 0.783352 37.3495 1.38358 36.2037C2.14659 34.7586 3.79468 33.6438 5.21896 33.6335L5.64624 33.6231V42.3971ZM12.7676 34.3663C12.7676 34.9237 12.8388 35.3057 13.0423 35.8424C13.2966 36.534 13.317 36.6785 13.3679 39.1353C13.4492 42.3971 13.3475 42.2733 15.0566 41.272C16.135 40.6423 16.2978 40.5701 16.5521 40.663L16.837 40.7662V45.979V51.1814L16.4707 51.1505L16.1045 51.1195L13.1135 42.9132C11.4756 38.4024 10.031 34.4592 9.92924 34.1599L9.72577 33.6231H11.2416H12.7676V34.3663ZM24.7417 33.6954C24.7112 33.747 23.2971 37.6076 21.588 42.2939C19.8788 46.9802 18.4444 50.8924 18.4139 50.9853C18.363 51.1092 18.2307 51.1711 17.9967 51.1711H17.6509V45.9687V40.7662L17.9357 40.663C18.1799 40.5804 18.3528 40.6526 19.4312 41.272C21.1505 42.2733 21.0488 42.3971 21.1098 39.1353C21.1505 36.9056 21.181 36.5237 21.3438 36.2244C21.5676 35.8115 21.8219 34.6657 21.8219 34.0567V33.6231H23.3073C24.1211 33.6231 24.7621 33.6541 24.7417 33.6954ZM29.1468 34.5728C29.157 36.0902 29.3096 36.9882 29.7063 37.8347C30.2862 39.0733 31.3544 40.0023 32.738 40.4772C32.9008 40.5288 32.911 40.8178 32.8906 44.9984L32.8601 49.4576L31.7614 50.3144L30.6525 51.1711H29.747H28.8416V42.3971C28.8416 34.6657 28.8619 33.6231 28.9942 33.6231C29.1163 33.6231 29.1468 33.7986 29.1468 34.5728ZM34.437 45.2358V49.8189L35.3221 50.5002L36.197 51.1711H34.0809H31.9648L32.8397 50.5002L33.7248 49.8189V45.2358V40.6423H34.0809H34.437V45.2358Z" fill="white"/>
<path d="M46.3478 36.0103C46.289 36.0165 46.1063 36.0381 45.9454 36.0536C44.924 36.165 43.7943 36.5488 42.8813 37.0936C41.7206 37.7869 40.7766 38.7309 40.0833 39.8915C39.5416 40.7953 39.1826 41.8476 39.0371 42.9557C38.9876 43.3364 38.9876 44.4939 39.0371 44.8746C39.1826 45.9827 39.5416 47.035 40.0833 47.9388C40.7766 49.0994 41.7206 50.0434 42.8813 50.7367C43.7788 51.2722 44.859 51.6436 45.9144 51.7767C46.3261 51.8293 47.0751 51.8479 47.4403 51.8138C47.7344 51.7891 47.7901 51.7736 47.9015 51.6962C48.2296 51.4641 48.2543 51.0122 47.9572 50.7429C47.787 50.5882 47.6725 50.5665 47.1525 50.5913C44.209 50.7151 41.4854 48.8178 40.563 46.0013C40.2659 45.0913 40.1607 44.1906 40.2504 43.293C40.3278 42.5193 40.5661 41.6743 40.8973 40.9934C41.538 39.6811 42.6677 38.5483 43.98 37.9076C45.6018 37.1183 47.496 37.0193 49.1952 37.6414C50.523 38.1273 51.6775 39.0342 52.4606 40.201L52.6556 40.4951L51.7023 40.5106L50.749 40.526L50.6159 40.6189C50.2538 40.8758 50.2538 41.3834 50.6159 41.6403L50.749 41.7331L51.8632 41.7424C53.1229 41.7517 53.3055 41.7331 53.6893 41.5536C54.2526 41.2874 54.6581 40.7736 54.7819 40.167C54.8221 39.972 54.8283 39.7368 54.8221 38.833L54.8128 37.7343L54.7293 37.6104C54.6024 37.4186 54.4507 37.3381 54.2093 37.3381C53.9679 37.3381 53.8162 37.4186 53.6893 37.6104L53.6058 37.7343L53.5965 38.6937L53.5872 39.6501L53.4293 39.4211C53.157 39.0342 52.9403 38.7742 52.5689 38.3935C51.3494 37.14 49.8205 36.3569 48.0655 36.0815C47.6817 36.0227 46.6201 35.9793 46.3478 36.0103Z" fill="white"/>
<path d="M46.6935 38.3777C46.5542 38.4179 46.3593 38.6253 46.319 38.7677C46.2974 38.8451 46.285 39.6869 46.285 41.2685V43.6518L45.1088 44.8279C44.3165 45.6233 43.9203 46.0412 43.8863 46.1185C43.7965 46.3383 43.846 46.6169 44.0039 46.7902C44.1648 46.9635 44.4712 47.0254 44.7003 46.9326C44.8272 46.8768 47.2383 44.4967 47.4085 44.2553L47.5075 44.116V41.4388V38.7615L47.4333 38.6439C47.2878 38.4087 46.9659 38.2941 46.6935 38.3777Z" fill="white"/>
<path d="M52.6938 43.8324L52.6938 43.8324L52.6935 43.8331C52.3718 44.4411 52.2164 45.334 52.2164 46.5C52.2164 47.6153 52.3641 48.493 52.6677 49.1248C52.821 49.4437 53.0218 49.6889 53.2727 49.8539C53.524 50.0192 53.8192 50.1 54.1543 50.1C54.4735 50.1 54.7582 50.0223 55.0048 49.8642C55.2508 49.7065 55.4534 49.4723 55.6149 49.1673C55.9421 48.559 56.1001 47.666 56.1001 46.5C56.1001 45.316 55.9531 44.4202 55.648 43.8251C55.4967 43.5216 55.2959 43.2889 55.0436 43.1325C54.7911 42.9761 54.4933 42.9 54.1543 42.9C53.8375 42.9 53.5542 42.9778 53.3078 43.1358C53.0618 43.2934 52.8579 43.5276 52.6938 43.8324ZM54.9529 48.6076L54.9527 48.6081C54.8638 48.8223 54.7521 48.9751 54.6214 49.0744C54.492 49.1727 54.3378 49.2232 54.1543 49.2232C53.9762 49.2232 53.8241 49.165 53.6931 49.0473C53.5619 48.918 53.4489 48.7384 53.3566 48.5039C53.2638 48.2615 53.1932 47.973 53.1459 47.6375C53.1037 47.2944 53.0825 46.9153 53.0825 46.5C53.0825 45.5365 53.1763 44.8405 53.3558 44.4016C53.4475 44.1839 53.5607 44.0285 53.6916 43.9276C53.8213 43.8277 53.974 43.7768 54.1543 43.7768C54.3512 43.7768 54.5112 43.8368 54.641 43.954C54.7753 44.0754 54.888 44.2532 54.9751 44.494L54.9751 44.494L54.9758 44.4957C55.0682 44.737 55.1336 45.0279 55.1704 45.3698L55.1704 45.3698L55.1706 45.3713C55.2128 45.7147 55.234 46.0909 55.234 46.5C55.234 47.4703 55.1375 48.1691 54.9529 48.6076Z" fill="white" stroke="#F82179" stroke-width="0.2"/>
<path d="M51.4507 48.713L51.4509 48.7124C51.5285 48.4385 51.567 48.1489 51.567 47.8439C51.567 47.2044 51.4193 46.6922 51.1109 46.3205C50.8059 45.9463 50.3826 45.7619 49.8539 45.7619C49.5426 45.7619 49.2725 45.8405 49.0495 46.0028C48.9721 46.0569 48.902 46.1137 48.8397 46.1733C48.8826 45.9709 48.9391 45.772 49.0091 45.5765C49.124 45.2555 49.2699 44.967 49.4463 44.7106C49.6277 44.4548 49.8368 44.2405 50.0735 44.0668C50.3083 43.8947 50.5681 43.7781 50.8541 43.7165L50.9523 43.6954L50.9307 43.5973L50.7942 42.9785L50.7738 42.8857L50.6801 42.9014C50.2779 42.9687 49.9046 43.1335 49.5609 43.3939C49.223 43.6476 48.9312 43.98 48.6848 44.389C48.4381 44.7984 48.2448 45.2783 48.1038 45.8273L48.1038 45.8273L48.1036 45.828C47.9676 46.372 47.9 46.9668 47.9 47.6119C47.9 48.0053 47.9408 48.356 48.0239 48.6629L48.0238 48.6629L48.0243 48.6645C48.1126 48.9704 48.2379 49.2333 48.4016 49.451L48.4016 49.451L48.4025 49.4522C48.5666 49.6634 48.7631 49.8251 48.9919 49.9354C49.2211 50.0458 49.477 50.1 49.7576 50.1C50.0442 50.1 50.3036 50.0424 50.5335 49.9246L50.5335 49.9247L50.5356 49.9235C50.7622 49.8007 50.9526 49.6365 51.1057 49.4314L51.1058 49.4314L51.1067 49.4301C51.2584 49.2202 51.3729 48.9808 51.4507 48.713ZM50.1346 49.1293L50.1346 49.1293L50.133 49.1302C50.0265 49.1916 49.9049 49.2232 49.7656 49.2232C49.5902 49.2232 49.4412 49.1825 49.3151 49.1043C49.1882 49.0157 49.0803 48.9035 48.9913 48.7668C48.9014 48.6223 48.8333 48.4588 48.7876 48.2754C48.7465 48.0897 48.726 47.9007 48.726 47.7086V47.7081V47.7077V47.7073V47.7069V47.7065V47.7061V47.7057V47.7052V47.7048V47.7044V47.704V47.7036V47.7032V47.7028V47.7023V47.7019V47.7015V47.7011V47.7007V47.7003V47.6999V47.6995V47.699V47.6986V47.6982V47.6978V47.6974V47.697V47.6966V47.6962V47.6958V47.6953V47.6949V47.6945V47.6941V47.6937V47.6933V47.6929V47.6925V47.6921V47.6917V47.6912V47.6908V47.6904V47.69V47.6896V47.6892V47.6888V47.6884V47.688V47.6876V47.6872V47.6868V47.6863V47.6859V47.6855V47.6851V47.6847V47.6843V47.6839V47.6835V47.6831V47.6827V47.6823V47.6819V47.6815V47.6811V47.6807V47.6802V47.6798V47.6794V47.679V47.6786V47.6782V47.6778V47.6774V47.677V47.6766V47.6762V47.6758V47.6754V47.675V47.6746V47.6742V47.6738V47.6734V47.673V47.6726V47.6722V47.6718V47.6714V47.671V47.6706V47.6702V47.6698V47.6694V47.669V47.6686V47.6682V47.6678V47.6674V47.667V47.6666V47.6662V47.6658V47.6654V47.665V47.6646V47.6642V47.6638V47.6634V47.663V47.6626V47.6622V47.6618V47.6614V47.661V47.6606V47.6602V47.6598V47.6594V47.659V47.6586V47.6582V47.6578V47.6574V47.657V47.6566V47.6562V47.6558V47.6554V47.655V47.6546V47.6542V47.6538V47.6534V47.653V47.6526V47.6522V47.6518V47.6515V47.6511V47.6507V47.6503V47.6499V47.6495V47.6491V47.6487V47.6483V47.6479V47.6475V47.6471V47.6467V47.6463V47.6459V47.6455V47.6452V47.6448V47.6444V47.644V47.6436V47.6432V47.6428V47.6424V47.642V47.6416V47.6412V47.6409V47.6405V47.6401V47.6397V47.6393V47.6389V47.6385V47.6381V47.6377V47.6373V47.637V47.6366V47.6362V47.6358V47.6354V47.635V47.6346V47.6342V47.6338V47.6335V47.6331V47.6327V47.6323V47.6319V47.6315V47.6311V47.6307V47.6304V47.63V47.6296V47.6292V47.6288V47.6284V47.628V47.6277V47.6273V47.6269V47.6265V47.6261V47.6257V47.6253V47.625V47.6246V47.6242V47.6238V47.6234V47.623V47.6227V47.6223V47.6219V47.6215V47.6211V47.6207V47.6204V47.62V47.6196V47.6192V47.6188V47.6184V47.6181V47.6177V47.6173V47.6169V47.6165V47.6162V47.6158V47.6154V47.615V47.6146V47.6142V47.6139V47.6135V47.6131V47.6127V47.6123V47.612V47.6116V47.6112V47.6108V47.6104V47.6101V47.6097V47.6093V47.6089V47.6086V47.6082V47.6078V47.6074V47.607V47.6067V47.6063V47.6059V47.6055V47.6052V47.6048V47.6044V47.604V47.6037V47.6033V47.6029V47.6025V47.6021V47.6018V47.6014V47.601V47.6006V47.6003V47.5999V47.5995V47.5991V47.5988V47.5984V47.598V47.5976V47.5973V47.5969V47.5965V47.5962V47.5958V47.5954V47.595V47.5947V47.5943V47.5939V47.5935V47.5932V47.5928V47.5924V47.5921V47.5917V47.5913V47.5909V47.5906V47.5902V47.5898V47.5895V47.5891V47.5887V47.5883V47.588V47.5876V47.5872V47.5869V47.5865V47.5861V47.5858V47.5854V47.585V47.5846V47.5843V47.5839V47.5835V47.5832V47.5828V47.5824V47.5821V47.5817V47.5813V47.581V47.5806V47.5802V47.5799V47.5795V47.5791V47.5788V47.5784V47.578V47.5777V47.5773V47.5769V47.5766V47.5762V47.5758V47.5755V47.5751V47.5747V47.5744V47.574V47.5737V47.5733V47.5729V47.5726V47.5722V47.5718V47.5715V47.5711V47.5707V47.5704V47.57V47.5697V47.5693V47.5689V47.5686V47.5682V47.5678V47.5675V47.5671V47.5668V47.5664V47.566V47.5657V47.5653V47.5649V47.5646V47.5642V47.5639V47.5635V47.5631V47.5628V47.5624V47.5621V47.5617V47.5613V47.561V47.5606V47.5603V47.5599V47.5596V47.5592V47.5588V47.5585V47.5581V47.5578V47.5574V47.557V47.5567V47.5563V47.556V47.5556V47.5553V47.5549V47.5545V47.5542V47.5538V47.5535V47.5531V47.5528V47.5524V47.5521V47.5517V47.5513V47.551V47.5506V47.5503V47.5499V47.5496V47.5492V47.5489V47.5485V47.5482V47.5478V47.5474V47.5471V47.5467V47.5464V47.546V47.5457V47.5453V47.545V47.5446V47.5443V47.5439V47.5436V47.5432V47.5429V47.5425V47.5422V47.5418V47.5415V47.5411V47.5408V47.5404V47.54V47.5397V47.5393V47.539V47.5386V47.5383V47.5379V47.5376V47.5372V47.5369V47.5366V47.5362V47.5359V47.5355V47.5352V47.5348V47.5345V47.5341V47.5338V47.5334V47.5331V47.5327V47.5324V47.532V47.5317V47.5313V47.531V47.5306V47.5303V47.5299V47.5296V47.5293V47.5289V47.5286V47.5282V47.5279V47.5275V47.5272V47.5268V47.5265V47.5261V47.5258V47.5255V47.5251V47.5248V47.5244V47.5241V47.5237V47.5234V47.5231V47.5227V47.5224V47.522V47.5217V47.5213V47.521V47.5207V47.5203V47.52V47.5196V47.5193V47.5189V47.5186V47.5183V47.5179V47.5176V47.5172V47.5169V47.5166V47.5162V47.5159V47.5155V47.5152C48.726 47.4652 48.7304 47.3996 48.7399 47.3174C48.8083 47.1472 48.9263 46.9906 49.0984 46.8483C49.2721 46.709 49.4768 46.6387 49.7175 46.6387C50.0646 46.6387 50.3038 46.7466 50.4565 46.9473C50.6142 47.1545 50.7009 47.4739 50.7009 47.9213C50.7009 48.1121 50.6754 48.289 50.6251 48.4527L50.625 48.4526L50.6243 48.4554C50.5788 48.6197 50.5141 48.7562 50.4317 48.8672C50.3489 48.9786 50.25 49.0656 50.1346 49.1293Z" fill="white" stroke="#F82179" stroke-width="0.2"/>
</svg>
