<svg width="22" height="13" viewBox="0 0 22 13" fill="none" xmlns="http://www.w3.org/2000/svg">
<path d="M18.9397 8.2647C19.6701 9.01124 20.4439 9.70499 21.0947 10.5269C21.384 10.8889 21.6588 11.2659 21.8685 11.6882C22.165 12.2915 21.8974 12.9475 21.384 12.9852H18.1804C17.356 13.0531 16.6907 12.7062 16.1411 12.118C15.7 11.643 15.2878 11.1453 14.8612 10.6551C14.6876 10.4591 14.4996 10.2705 14.2827 10.1197C13.8415 9.82564 13.4655 9.91613 13.2124 10.3912C12.9593 10.8738 12.9014 11.4092 12.8725 11.9521C12.8364 12.7364 12.6122 12.9475 11.8529 12.9852C10.233 13.0682 8.69271 12.8118 7.2681 11.9597C6.00982 11.2056 5.03357 10.1499 4.18025 8.94337C2.51701 6.59819 1.25149 4.02678 0.108917 1.3875C-0.144185 0.791782 0.0438336 0.475069 0.672974 0.459988C1.72154 0.437365 2.76288 0.437365 3.81144 0.459988C4.2381 0.467529 4.52013 0.723915 4.67922 1.13866C5.24328 2.58649 5.9375 3.97399 6.80528 5.24839C7.03669 5.58772 7.27533 5.92706 7.60798 6.16836C7.97679 6.43229 8.26605 6.34934 8.4396 5.91197C8.54808 5.64051 8.5987 5.34642 8.62762 5.05233C8.70717 4.04186 8.72163 3.03894 8.577 2.02847C8.49022 1.40259 8.15034 0.995384 7.55013 0.874731C7.24641 0.814405 7.2898 0.693752 7.43443 0.512773C7.69476 0.19606 7.9334 0 8.41791 0H12.0409C12.6122 0.120653 12.7351 0.38458 12.8147 0.980302V5.18052C12.8074 5.41428 12.9231 6.10049 13.3281 6.25131C13.6463 6.35688 13.8632 6.09295 14.0512 5.88181C14.919 4.92413 15.5409 3.78547 16.0905 2.60911C16.3364 2.0888 16.5461 1.5534 16.7486 1.01801C16.9005 0.618344 17.1391 0.422284 17.5658 0.429825H21.0513C21.1526 0.429825 21.2611 0.429825 21.3623 0.452447C21.948 0.558018 22.1144 0.821945 21.9263 1.41767C21.6371 2.36027 21.0875 3.13697 20.5379 3.92875C19.9594 4.76578 19.3375 5.58018 18.759 6.42475C18.2455 7.20899 18.2817 7.59357 18.9397 8.2647Z" fill="#ED1E79"/>
</svg>
