<svg width="10" height="21" viewBox="0 0 10 21" fill="none" xmlns="http://www.w3.org/2000/svg">
<path d="M9.61539 0H7.21154C4.51923 0 2.76923 2.02804 2.76923 5.16822V7.54517H0.384615C0.173077 7.54517 0 7.74143 0 7.98131V11.4268C0 11.6667 0.173077 11.8629 0.384615 11.8629H2.78846V20.5639C2.78846 20.8037 2.96154 21 3.17308 21H6.32692C6.53846 21 6.71154 20.8037 6.71154 20.5639V11.8411H9.53846C9.75 11.8411 9.92308 11.6449 9.92308 11.405V7.9595C9.92308 7.85047 9.88462 7.74143 9.80769 7.65421C9.73077 7.56698 9.63461 7.52336 9.53846 7.52336H6.69231V5.51713C6.69231 4.55763 6.90385 4.05608 8 4.05608H9.61539C9.82692 4.05608 10 3.85981 10 3.61994V0.436137C10 0.196262 9.82692 0 9.61539 0Z" fill="#ED1E79"/>
</svg>
