<svg width="18" height="19" viewBox="0 0 18 19" fill="none" xmlns="http://www.w3.org/2000/svg">
<path d="M13.1273 0H4.87266C2.18672 0 0 2.3082 0 5.14336V13.8566C0 16.6918 2.18672 19 4.87266 19H13.1273C15.8133 19 18 16.6918 18 13.8566V5.14336C18 2.3082 15.8133 0 13.1273 0ZM9 14.6953C6.28594 14.6953 4.07812 12.3648 4.07812 9.5C4.07812 6.63516 6.28594 4.30469 9 4.30469C11.7141 4.30469 13.9219 6.63516 13.9219 9.5C13.9219 12.3648 11.7141 14.6953 9 14.6953ZM14.0379 5.5293C13.2363 5.5293 12.5824 4.83906 12.5824 3.99297C12.5824 3.14687 13.2363 2.45664 14.0379 2.45664C14.8395 2.45664 15.4934 3.14687 15.4934 3.99297C15.4934 4.83906 14.843 5.5293 14.0379 5.5293Z" fill="#ED1E79"/>
<path d="M8.99999 5.41797C6.86953 5.41797 5.13281 7.24738 5.13281 9.49983C5.13281 11.7486 6.86601 13.5817 8.99999 13.5817C11.1305 13.5817 12.8672 11.7523 12.8672 9.49983C12.8672 7.25109 11.1305 5.41797 8.99999 5.41797Z" fill="#ED1E79"/>
<path d="M14.0375 3.57324C13.816 3.57324 13.6367 3.76252 13.6367 3.99633C13.6367 4.23015 13.816 4.41942 14.0375 4.41942C14.259 4.41942 14.4383 4.23015 14.4383 3.99633C14.4383 3.76252 14.259 3.57324 14.0375 3.57324Z" fill="#ED1E79"/>
</svg>
